<?xml version="1.0" encoding="UTF-8"?>
<svg version="1.1" xmlns="http://www.w3.org/2000/svg" width="286" height="176">
<path d="M0 0 C1.67542976 0.28604898 3.34385343 0.61781233 5 1 C5.5625 2.9375 5.5625 2.9375 6 5 C5.67 5.33 5.34 5.66 5 6 C4.8415735 8.0708472 4.74875578 10.14678029 4.68359375 12.22265625 C4.64169922 13.48271484 4.59980469 14.74277344 4.55664062 16.04101562 C4.51682404 17.38150736 4.47711186 18.7220022 4.4375 20.0625 C4.39431958 21.40691523 4.35070544 22.7513166 4.30664062 24.09570312 C4.20014642 27.3970234 4.0981354 30.69842236 4 34 C4.70487549 33.78561279 5.40975098 33.57122559 6.13598633 33.3503418 C11.84148877 31.6910072 16.75036825 30.63614955 22.6875 30.8125 C23.88761719 30.83957031 25.08773437 30.86664063 26.32421875 30.89453125 C27.20722656 30.92933594 28.09023437 30.96414062 29 31 C29.99 32.98 29.99 32.98 31 35 C31.99 35 32.98 35 34 35 C34 35.66 34 36.32 34 37 C35.32 37 36.64 37 38 37 C37.67 37.99 37.34 38.98 37 40 C33.535 40.495 33.535 40.495 30 41 C30 41.99 30 42.98 30 44 C29.38705078 44.12004395 28.77410156 44.24008789 28.14257812 44.36376953 C7.81813097 48.40357644 -13.50960302 53.2300866 -29 68 C-25.37 68.33 -21.74 68.66 -18 69 C-18 69.99 -18 70.98 -18 72 C-22.95 72 -27.9 72 -33 72 C-34.72990748 78.05467618 -36.04641936 82.81566156 -35 89 C-32.47323961 92.34625024 -30.96066458 93.67977847 -27 95 C-9.25441945 96.3877954 9.43177009 91.26370018 23.3125 79.75 C25.43314069 77.58004209 27.34198168 75.53579272 29 73 C26.69 72.67 24.38 72.34 22 72 C22 71.01 22 70.02 22 69 C25.96 69 29.92 69 34 69 C34 66.69 34 64.38 34 62 C36.31 62 38.62 62 41 62 C41 61.01 41 60.02 41 59 C40.01 59 39.02 59 38 59 C38 57.35 38 55.7 38 54 C38.99 54 39.98 54 41 54 C41 53.01 41 52.02 41 51 C42.65 51 44.3 51 46 51 C46 51.99 46 52.98 46 54 C46.99 54 47.98 54 49 54 C49 53.01 49 52.02 49 51 C49.99 51 50.98 51 52 51 C52 49.68 52 48.36 52 47 C53.32 47 54.64 47 56 47 C56 46.01 56 45.02 56 44 C54.68 44 53.36 44 52 44 C52 42.68 52 41.36 52 40 C53.65 40 55.3 40 57 40 C57 40.99 57 41.98 57 43 C57.99 43 58.98 43 60 43 C60 44.32 60 45.64 60 47 C60.99 46.67 61.98 46.34 63 46 C63 45.01 63 44.02 63 43 C64.65 43 66.3 43 68 43 C68 44.65 68 46.3 68 48 C66.68 48 65.36 48 64 48 C64 48.99 64 49.98 64 51 C65.32 51 66.64 51 68 51 C68 52.32 68 53.64 68 55 C66.68 55 65.36 55 64 55 C64 57.31 64 59.62 64 62 C65.32 62 66.64 62 68 62 C68 63.32 68 64.64 68 66 C66.35 66 64.7 66 63 66 C63 65.01 63 64.02 63 63 C62.01 63 61.02 63 60 63 C60 63.99 60 64.98 60 66 C59.01 66 58.02 66 57 66 C57 66.99 57 67.98 57 69 C72.05548566 68.89276386 87.11092239 68.78000296 102.16631699 68.66066074 C109.15675954 68.60537727 116.1472072 68.55190332 123.13769531 68.50268555 C129.8809623 68.45520331 136.62417269 68.40268331 143.36737823 68.34705925 C145.94302344 68.32664257 148.51868271 68.30792835 151.09435272 68.29092598 C154.69544062 68.26686696 158.29643146 68.23681413 161.89746094 68.20532227 C162.9677655 68.1995668 164.03807007 68.19381134 165.14080811 68.18788147 C166.12234863 68.17809265 167.10388916 68.16830383 168.11517334 68.15821838 C168.96691006 68.15176583 169.81864677 68.14531328 170.6961937 68.1386652 C173.00846964 68.08480511 173.00846964 68.08480511 175.18030167 67.36511135 C175.78080212 67.24462461 176.38130257 67.12413786 177 67 C177.66 67.66 178.32 68.32 179 69 C178.625 71.625 178.625 71.625 178 74 C176.33388095 74.042721 174.66617115 74.04063832 173 74 C172.67 73.67 172.34 73.34 172 73 C170.45688956 72.89201408 168.9088876 72.85316742 167.36204529 72.84178162 C166.35938629 72.8319928 165.35672729 72.82220398 164.32368469 72.81211853 C163.21454208 72.80636307 162.10539948 72.8006076 160.96264648 72.79467773 C159.80182556 72.78477814 158.64100464 72.77487854 157.44500732 72.76467896 C153.58705727 72.73295305 149.72909487 72.70826284 145.87109375 72.68359375 C143.20450911 72.66303378 140.53793036 72.64208634 137.87135315 72.62062073 C131.5567447 72.57064367 125.2421107 72.52572351 118.92745215 72.48259836 C111.74011088 72.43326873 104.55281592 72.37833481 97.3655194 72.32291877 C82.57705684 72.20902181 67.78854814 72.10219965 53 72 C53 73.65 53 75.3 53 77 C51.68 77 50.36 77 49 77 C49 76.01 49 75.02 49 74 C48.01 74 47.02 74 46 74 C46.309375 75.485 46.309375 75.485 46.625 77 C46.59671161 79.81186602 46.16378027 80.81061729 44.30078125 82.96484375 C34.40374581 91.22600556 17.33419827 102 4 102 C4.11861184 106.60831791 4.24288361 111.21643613 4.37231445 115.82446289 C4.41552339 117.39082736 4.45720791 118.95723467 4.49731445 120.52368164 C4.55535871 122.7802418 4.61895302 125.03658908 4.68359375 127.29296875 C4.70030624 127.98899704 4.71701874 128.68502533 4.73423767 129.40214539 C4.82219144 132.31394582 5.00214185 135.00948952 5.64477539 137.85668945 C5.76199951 138.56398193 5.87922363 139.27127441 6 140 C5.34 140.66 4.68 141.32 4 142 C1.375 141.625 1.375 141.625 -1 141 C-1.042721 139.33388095 -1.04063832 137.66617115 -1 136 C-0.67 135.67 -0.34 135.34 0 135 C0.15971977 132.62661361 0.2592433 130.27881728 0.31640625 127.90234375 C0.3475779 126.83905602 0.3475779 126.83905602 0.37937927 125.75428772 C0.44494598 123.48212695 0.5037923 121.20984736 0.5625 118.9375 C0.60567849 117.40037817 0.64929255 115.8632685 0.69335938 114.32617188 C0.80063449 110.5509041 0.90188137 106.7755164 1 103 C0.4112207 103.14074951 -0.17755859 103.28149902 -0.78417969 103.42651367 C-11.9031637 106.00616344 -24.14139777 106.34094218 -34.4609375 100.640625 C-39.13123913 97.27245208 -43.14476917 93.56569248 -45 88 C-45.203125 85.984375 -45.203125 85.984375 -45.25 83.75 C-45.27578125 83.02296875 -45.3015625 82.2959375 -45.328125 81.546875 C-45 79 -45 79 -42 72 C-47.94 72 -53.88 72 -60 72 C-60 72.66 -60 73.32 -60 74 C-61.66611905 74.042721 -63.33382885 74.04063832 -65 74 C-66 73 -66 73 -66.0625 70.4375 C-66.0315625 69.2309375 -66.0315625 69.2309375 -66 68 C-64.34385343 67.61781233 -62.67542976 67.28604898 -61 67 C-60.67 67.33 -60.34 67.66 -60 68 C-52.68216195 69.1668985 -43.28642546 70.34807025 -37.05859375 65.8984375 C-34.86141699 63.02551761 -32.95086669 60.04412466 -31 57 C-22.48841388 47.79386846 -11.69531809 40.53140551 0 36 C0.02465746 31.8882744 0.04283959 27.77657722 0.05493164 23.66479492 C0.0599708 22.26504772 0.06680216 20.8653058 0.07543945 19.46557617 C0.0875232 17.45754223 0.09269807 15.44947043 0.09765625 13.44140625 C0.10551147 11.62684937 0.10551147 11.62684937 0.11352539 9.77563477 C0.31775285 7.09187983 0.31775285 7.09187983 -1 6 C-1.125 3.5 -1.125 3.5 -1 1 C-0.67 0.67 -0.34 0.34 0 0 Z M19 33 C18.34 33.66 17.68 34.32 17 35 C18.98 35 20.96 35 23 35 C22.67 34.34 22.34 33.68 22 33 C21.01 33 20.02 33 19 33 Z M29 36 C30 38 30 38 30 38 Z M21 37 C20.67 37.66 20.34 38.32 20 39 C20.66 39 21.32 39 22 39 C21.67 38.34 21.34 37.68 21 37 Z M27 38 C26.01 38.33 25.02 38.66 24 39 C24 39.66 24 40.32 24 41 C25.32 40.67 26.64 40.34 28 40 C27.67 39.34 27.34 38.68 27 38 Z M57 48 C57 48.99 57 49.98 57 51 C57.99 51 58.98 51 60 51 C60 50.01 60 49.02 60 48 C59.01 48 58.02 48 57 48 Z M53 51 C53 51.99 53 52.98 53 54 C53.99 54 54.98 54 56 54 C56 53.01 56 52.02 56 51 C55.01 51 54.02 51 53 51 Z M60 51 C60 51.99 60 52.98 60 54 C60.99 54 61.98 54 63 54 C63 53.01 63 52.02 63 51 C62.01 51 61.02 51 60 51 Z M57 55 C57 57.31 57 59.62 57 62 C57.99 62 58.98 62 60 62 C60 59.69 60 57.38 60 55 C59.01 55 58.02 55 57 55 Z M49 59 C49 59.99 49 60.98 49 62 C49.99 62 50.98 62 52 62 C52 61.01 52 60.02 52 59 C51.01 59 50.02 59 49 59 Z M49 66 C49 66.99 49 67.98 49 69 C49.99 69 50.98 69 52 69 C52 68.01 52 67.02 52 66 C51.01 66 50.02 66 49 66 Z M38 70 C38 70.99 38 71.98 38 73 C38.99 73 39.98 73 41 73 C41 72.01 41 71.02 41 70 C40.01 70 39.02 70 38 70 Z " fill="#939191" transform="translate(69,3)"/>
<path d="M0 0 C1.67542976 0.28604898 3.34385343 0.61781233 5 1 C5.5625 2.9375 5.5625 2.9375 6 5 C5.67 5.33 5.34 5.66 5 6 C4.8415735 8.0708472 4.74875578 10.14678029 4.68359375 12.22265625 C4.64169922 13.48271484 4.59980469 14.74277344 4.55664062 16.04101562 C4.51682404 17.38150736 4.47711186 18.7220022 4.4375 20.0625 C4.39431958 21.40691523 4.35070544 22.7513166 4.30664062 24.09570312 C4.20014642 27.3970234 4.0981354 30.69842236 4 34 C4.70487549 33.78561279 5.40975098 33.57122559 6.13598633 33.3503418 C11.84148877 31.6910072 16.75036825 30.63614955 22.6875 30.8125 C23.88761719 30.83957031 25.08773437 30.86664063 26.32421875 30.89453125 C27.20722656 30.92933594 28.09023437 30.96414062 29 31 C29.99 32.98 29.99 32.98 31 35 C31.99 35 32.98 35 34 35 C34 35.66 34 36.32 34 37 C35.32 37 36.64 37 38 37 C37.67 37.99 37.34 38.98 37 40 C33.535 40.495 33.535 40.495 30 41 C30 41.99 30 42.98 30 44 C29.38705078 44.12004395 28.77410156 44.24008789 28.14257812 44.36376953 C7.81813097 48.40357644 -13.50960302 53.2300866 -29 68 C-25.37 68.33 -21.74 68.66 -18 69 C-18 69.99 -18 70.98 -18 72 C-22.95 72 -27.9 72 -33 72 C-34.72990748 78.05467618 -36.04641936 82.81566156 -35 89 C-32.47323961 92.34625024 -30.96066458 93.67977847 -27 95 C-25.3229597 95.07033827 -23.6432169 95.08429902 -21.96484375 95.0625 C-20.99095703 95.05476563 -20.01707031 95.04703125 -19.01367188 95.0390625 C-17.4909668 95.01972656 -17.4909668 95.01972656 -15.9375 95 C-13.92583433 94.97455198 -11.91410676 94.95349812 -9.90234375 94.9375 C-8.56417603 94.92009766 -8.56417603 94.92009766 -7.19897461 94.90234375 C-5 95 -5 95 -3 96 C-2.67 95.34 -2.34 94.68 -2 94 C-1.34 94.33 -0.68 94.66 0 95 C0.09765625 101.15234375 0.09765625 101.15234375 0 103 C-2.70963765 105.70963765 -9.47757023 105.13801751 -13.125 105.25 C-23.2978077 105.11007142 -32.5669987 103.26823033 -40 96 C-43.5805082 92.0522602 -45.13818343 89.07992333 -45.25 83.75 C-45.27578125 83.02296875 -45.3015625 82.2959375 -45.328125 81.546875 C-45 79 -45 79 -42 72 C-47.94 72 -53.88 72 -60 72 C-60 72.66 -60 73.32 -60 74 C-61.66611905 74.042721 -63.33382885 74.04063832 -65 74 C-66 73 -66 73 -66.0625 70.4375 C-66.0315625 69.2309375 -66.0315625 69.2309375 -66 68 C-64.34385343 67.61781233 -62.67542976 67.28604898 -61 67 C-60.67 67.33 -60.34 67.66 -60 68 C-52.68216195 69.1668985 -43.28642546 70.34807025 -37.05859375 65.8984375 C-34.86141699 63.02551761 -32.95086669 60.04412466 -31 57 C-22.48841388 47.79386846 -11.69531809 40.53140551 0 36 C0.02465746 31.8882744 0.04283959 27.77657722 0.05493164 23.66479492 C0.0599708 22.26504772 0.06680216 20.8653058 0.07543945 19.46557617 C0.0875232 17.45754223 0.09269807 15.44947043 0.09765625 13.44140625 C0.10551147 11.62684937 0.10551147 11.62684937 0.11352539 9.77563477 C0.31775285 7.09187983 0.31775285 7.09187983 -1 6 C-1.125 3.5 -1.125 3.5 -1 1 C-0.67 0.67 -0.34 0.34 0 0 Z M19 33 C18.34 33.66 17.68 34.32 17 35 C18.98 35 20.96 35 23 35 C22.67 34.34 22.34 33.68 22 33 C21.01 33 20.02 33 19 33 Z M29 36 C30 38 30 38 30 38 Z M21 37 C20.67 37.66 20.34 38.32 20 39 C20.66 39 21.32 39 22 39 C21.67 38.34 21.34 37.68 21 37 Z M27 38 C26.01 38.33 25.02 38.66 24 39 C24 39.66 24 40.32 24 41 C25.32 40.67 26.64 40.34 28 40 C27.67 39.34 27.34 38.68 27 38 Z " fill="#919090" transform="translate(69,3)"/>
<path d="M0 0 C4.39796472 3.96889499 7.29348729 7.42889562 8.5625 13.3125 C8.3670845 19.46808816 7.13613733 23.29009078 3.5625 28.3125 C-1.7421229 32.42628919 -5.72444424 33.86275047 -12.4375 33.3125 C-18.32647025 31.3569596 -21.90548614 28.34294398 -25.4375 23.3125 C-27.1103747 18.29387589 -27.47097349 13.03289882 -25.56640625 8.01953125 C-20.10689554 -1.52118747 -10.14344702 -4.97951035 0 0 Z " fill="#F18700" transform="translate(80.4375,58.6875)"/>
<path d="M0 0 C3.196875 -0.061875 6.39375 -0.12375 9.6875 -0.1875 C11.18543091 -0.22846802 11.18543091 -0.22846802 12.71362305 -0.27026367 C17.62188885 -0.31625548 21.04370406 -0.26374514 25 3 C26.98777519 5.62024912 27.03767606 6.69859148 26.625 10 C26.315625 11.485 26.315625 11.485 26 13 C26 14.32 26 15.64 26 17 C26.33 17.33 26.66 17.66 27 18 C27.44171515 21.05414473 27.47209366 23.94954866 27 27 C24.47031526 30.28175318 22.92268669 31.69243777 19 33 C17.51876453 33.0806622 16.03417796 33.10761193 14.55078125 33.09765625 C13.78677002 33.09515869 13.02275879 33.09266113 12.2355957 33.09008789 C11.27097412 33.08098389 10.30635254 33.07187988 9.3125 33.0625 C4.7028125 33.0315625 4.7028125 33.0315625 0 33 C0 22.11 0 11.22 0 0 Z M9 8 C9 9.32 9 10.64 9 12 C11.31 12 13.62 12 16 12 C16 10.68 16 9.36 16 8 C13.69 8 11.38 8 9 8 Z M9 20 C9 21.65 9 23.3 9 25 C11.31 25 13.62 25 16 25 C16.66 23.68 17.32 22.36 18 21 C17.01732141 19.79438816 17.01732141 19.79438816 15.15234375 19.90234375 C13.1015625 19.93489583 11.05078125 19.96744792 9 20 Z " fill="#1D1D1B" transform="translate(92,106)"/>
<path d="M0 0 C9 0 9 0 11.84765625 2.84375 C12.61819517 4.04236609 13.35623213 5.26242315 14.0625 6.5 C14.64547852 7.43005859 14.64547852 7.43005859 15.24023438 8.37890625 C16.18902602 9.90165827 17.09863023 11.4487064 18 13 C18.33 8.71 18.66 4.42 19 0 C21.97 0 24.94 0 28 0 C28 10.89 28 21.78 28 33 C20 33 20 33 18.17382812 31.71484375 C17.60825195 30.83505859 17.60825195 30.83505859 17.03125 29.9375 C16.60585937 29.30585938 16.18046875 28.67421875 15.7421875 28.0234375 C15.33226562 27.35570312 14.92234375 26.68796875 14.5 26 C14.05914062 25.33226562 13.61828125 24.66453125 13.1640625 23.9765625 C12.08451749 22.33377662 11.03878086 20.66886105 10 19 C9.67 23.62 9.34 28.24 9 33 C6.03 33 3.06 33 0 33 C0 22.11 0 11.22 0 0 Z " fill="#1D1D1B" transform="translate(135,106)"/>
<path d="M0 0 C3.3 0 6.6 0 10 0 C10.06058594 1.49273437 10.12117187 2.98546875 10.18359375 4.5234375 C10.26799173 6.47396862 10.3526401 8.42448892 10.4375 10.375 C10.47681641 11.35984375 10.51613281 12.3446875 10.55664062 13.359375 C10.61948242 14.77089844 10.61948242 14.77089844 10.68359375 16.2109375 C10.72025146 17.08024902 10.75690918 17.94956055 10.79467773 18.84521484 C10.87401544 21.0483262 10.87401544 21.0483262 12 23 C13.65 23 15.3 23 17 23 C18.20270964 20.59458071 18.20316663 18.89633409 18.31640625 16.2109375 C18.35830078 15.26992187 18.40019531 14.32890625 18.44335938 13.359375 C18.48267578 12.37453125 18.52199219 11.3896875 18.5625 10.375 C18.60568359 9.38242188 18.64886719 8.38984375 18.69335938 7.3671875 C18.79960947 4.91162967 18.90032455 2.45583349 19 0 C22.3 0 25.6 0 29 0 C29.08133037 3.52130364 29.14066172 7.04070754 29.1875 10.5625 C29.21263672 11.55314453 29.23777344 12.54378906 29.26367188 13.56445312 C29.32308515 19.5255853 28.93119807 23.76422577 26 29 C22.3810377 32.52848824 19.40900022 33.29323504 14.5 33.5 C9.5965683 33.30013186 6.65250412 32.46987891 3 29 C-0.87011622 23.33731213 -0.34561491 17.70906694 -0.1875 11.125 C-0.17396484 10.05507812 -0.16042969 8.98515625 -0.14648438 7.8828125 C-0.11129033 5.25499036 -0.05748832 2.62742896 0 0 Z " fill="#1D1D1B" transform="translate(166,106)"/>
<path d="M0 0 C0.94101563 0.17144531 1.88203125 0.34289062 2.8515625 0.51953125 C5.375 1.1875 5.375 1.1875 8.375 3.1875 C7.25048273 6.1594385 6.15206209 8.52190687 4.375 11.1875 C3.3025 10.836875 2.23 10.48625 1.125 10.125 C-2.41220743 9.24069814 -3.37311124 9.15869449 -6.625 10.1875 C-5.96113281 10.34605469 -5.29726562 10.50460938 -4.61328125 10.66796875 C0.93925869 12.13513624 4.87870088 13.33779477 8.375 18.1875 C9.39673019 21.45703662 9.52780486 23.47441063 8.8125 26.8125 C6.71450386 30.2787545 5.08381712 31.46098169 1.375 33.1875 C-5.94494215 34.11277359 -11.96238299 33.262554 -18.625 30.1875 C-17.50048273 27.2155615 -16.40206209 24.85309313 -14.625 22.1875 C-10.335 22.5175 -6.045 22.8475 -1.625 23.1875 C-4.22375 22.32125 -4.22375 22.32125 -6.875 21.4375 C-11.09989281 20.0292024 -13.77742529 18.66350499 -16.625 15.1875 C-17.68158777 11.31334484 -18.04246983 9.15427224 -16.4375 5.4375 C-11.76570172 -0.36197373 -7.20791283 -1.38002739 0 0 Z " fill="#1C1C1A" transform="translate(214.625,105.8125)"/>
<path d="M0 0 C2.97 0 5.94 0 9 0 C8.67 0.94875 8.34 1.8975 8 2.875 C6.6977071 7.5518475 6.18602544 12.18941034 7 17 C9.52676039 20.34625024 11.03933542 21.67977847 15 23 C16.6770403 23.07033827 18.3567831 23.08429902 20.03515625 23.0625 C21.00904297 23.05476563 21.98292969 23.04703125 22.98632812 23.0390625 C24.5090332 23.01972656 24.5090332 23.01972656 26.0625 23 C28.07416567 22.97455198 30.08589324 22.95349812 32.09765625 22.9375 C33.43582397 22.92009766 33.43582397 22.92009766 34.80102539 22.90234375 C37 23 37 23 39 24 C39.33 23.34 39.66 22.68 40 22 C40.66 22.33 41.32 22.66 42 23 C42.09765625 29.15234375 42.09765625 29.15234375 42 31 C39.29036235 33.70963765 32.52242977 33.13801751 28.875 33.25 C18.7021923 33.11007142 9.4330013 31.26823033 2 24 C-2.33301209 19.22257641 -3.27550836 15.64640123 -3.234375 9.36328125 C-2.88063604 5.7964134 -1.62276243 3.17790975 0 0 Z " fill="#929090" transform="translate(27,75)"/>
<path d="M0 0 C2.0625 0.4375 2.0625 0.4375 4 1 C4.38218767 2.65614657 4.71395102 4.32457024 5 6 C4 7 4 7 1.5 7.125 C-1 7 -1 7 -2 6 C-3.54311044 5.89201408 -5.0911124 5.85316742 -6.63795471 5.84178162 C-7.64061371 5.8319928 -8.64327271 5.82220398 -9.67631531 5.81211853 C-10.78545792 5.80636307 -11.89460052 5.8006076 -13.03735352 5.79467773 C-14.19817444 5.78477814 -15.35899536 5.77487854 -16.55499268 5.76467896 C-20.41294273 5.73295305 -24.27090513 5.70826284 -28.12890625 5.68359375 C-30.79549089 5.66303378 -33.46206964 5.64208634 -36.12864685 5.62062073 C-42.4432553 5.57064367 -48.7578893 5.52572351 -55.07254785 5.48259836 C-62.25988912 5.43326873 -69.44718408 5.37833481 -76.6344806 5.32291877 C-91.42294316 5.20902181 -106.21145186 5.10219965 -121 5 C-121 4.34 -121 3.68 -121 3 C-118.09569037 2.03189679 -116.22654482 1.86664953 -113.20419312 1.84851074 C-112.21705826 1.84016708 -111.2299234 1.83182343 -110.21287537 1.82322693 C-109.13119583 1.81904251 -108.0495163 1.81485809 -106.93505859 1.81054688 C-105.79505905 1.80225357 -104.65505951 1.79396027 -103.48051453 1.78541565 C-101.00217459 1.76800235 -98.52381808 1.75283905 -96.04545212 1.73963928 C-92.12991736 1.71865073 -88.21446632 1.69162639 -84.29898071 1.66296387 C-75.283444 1.59777531 -66.26785244 1.54228865 -57.25225067 1.48697662 C-48.32924692 1.43214136 -39.4062896 1.37350202 -30.48335648 1.30812073 C-26.61386697 1.28144256 -22.74437348 1.26069268 -18.87484741 1.2401123 C-16.51861365 1.2235182 -14.16238181 1.20664716 -11.80615234 1.18945312 C-10.72042435 1.18526871 -9.63469635 1.18108429 -8.5160675 1.17677307 C-7.5345723 1.16842941 -6.55307709 1.16008575 -5.5418396 1.15148926 C-4.68385962 1.14633553 -3.82587963 1.14118179 -2.94190025 1.13587189 C-0.99428723 1.21296313 -0.99428723 1.21296313 0 0 Z " fill="#1E1E1A" transform="translate(243,70)"/>
<path d="M0 0 C1.89492187 0.01353516 1.89492187 0.01353516 3.828125 0.02734375 C4.79234375 0.03894531 5.7565625 0.05054688 6.75 0.0625 C7.41 1.3825 8.07 2.7025 8.75 4.0625 C9.74 4.0625 10.73 4.0625 11.75 4.0625 C11.75 4.7225 11.75 5.3825 11.75 6.0625 C13.07 6.0625 14.39 6.0625 15.75 6.0625 C15.42 7.0525 15.09 8.0425 14.75 9.0625 C12.44 9.3925 10.13 9.7225 7.75 10.0625 C7.75 11.0525 7.75 12.0425 7.75 13.0625 C3.98027682 13.90090998 0.2090511 14.7323549 -3.5625 15.5625 C-4.63435547 15.80097656 -5.70621094 16.03945313 -6.81054688 16.28515625 C-8.35258789 16.62353516 -8.35258789 16.62353516 -9.92578125 16.96875 C-10.87364502 17.17822266 -11.82150879 17.38769531 -12.7980957 17.60351562 C-15.25 18.0625 -15.25 18.0625 -18.25 18.0625 C-18.25 13.4425 -18.25 8.8225 -18.25 4.0625 C-11.77196177 1.19721386 -7.2033433 -0.06669762 0 0 Z M-3.25 2.0625 C-3.91 2.7225 -4.57 3.3825 -5.25 4.0625 C-3.27 4.0625 -1.29 4.0625 0.75 4.0625 C0.42 3.4025 0.09 2.7425 -0.25 2.0625 C-1.24 2.0625 -2.23 2.0625 -3.25 2.0625 Z M6.75 5.0625 C7.75 7.0625 7.75 7.0625 7.75 7.0625 Z M-1.25 6.0625 C-1.58 6.7225 -1.91 7.3825 -2.25 8.0625 C-1.59 8.0625 -0.93 8.0625 -0.25 8.0625 C-0.58 7.4025 -0.91 6.7425 -1.25 6.0625 Z M4.75 7.0625 C3.76 7.3925 2.77 7.7225 1.75 8.0625 C1.75 8.7225 1.75 9.3825 1.75 10.0625 C3.07 9.7325 4.39 9.4025 5.75 9.0625 C5.42 8.4025 5.09 7.7425 4.75 7.0625 Z " fill="#949292" transform="translate(91.25,33.9375)"/>
<path d="M0 0 C3.3 0 6.6 0 10 0 C10 10.89 10 21.78 10 33 C6.7 33 3.4 33 0 33 C0 22.11 0 11.22 0 0 Z " fill="#1C1C1A" transform="translate(122,106)"/>
<path d="M0 0 C13.33416091 -0.37039336 13.33416091 -0.37039336 16.39453125 1.33203125 C18.76140866 3.79104987 18.93260305 5.63015235 19 9 C18.484375 9.825 17.96875 10.65 17.4375 11.5 C15.62083971 13.99697058 15.62083971 13.99697058 16.75 17.125 C17.1625 18.07375 17.575 19.0225 18 20 C18.33 20.99 18.66 21.98 19 23 C16.69 23 14.38 23 12 23 C9 17.25 9 17.25 9 15 C7.68 15 6.36 15 5 15 C5 17.64 5 20.28 5 23 C3.35 23 1.7 23 0 23 C0 15.41 0 7.82 0 0 Z M5 6 C5 7.32 5 8.64 5 10 C7.31 10 9.62 10 12 10 C12.33 8.68 12.66 7.36 13 6 C10.36 6 7.72 6 5 6 Z " fill="#0091D7" transform="translate(191,150)"/>
<path d="M0 0 C1.65 0 3.3 0 5 0 C5 0.99 5 1.98 5 3 C5.99 3 6.98 3 8 3 C8 4.32 8 5.64 8 7 C8.99 6.67 9.98 6.34 11 6 C11 5.01 11 4.02 11 3 C12.65 3 14.3 3 16 3 C16 4.65 16 6.3 16 8 C14.68 8 13.36 8 12 8 C12 8.99 12 9.98 12 11 C13.32 11 14.64 11 16 11 C16 12.32 16 13.64 16 15 C14.68 15 13.36 15 12 15 C12 17.31 12 19.62 12 22 C13.32 22 14.64 22 16 22 C16 23.32 16 24.64 16 26 C14.35 26 12.7 26 11 26 C11 25.01 11 24.02 11 23 C10.01 23 9.02 23 8 23 C8 23.99 8 24.98 8 26 C7.01 26 6.02 26 5 26 C5 26.99 5 27.98 5 29 C3.35 29 1.7 29 0 29 C0 28.01 0 27.02 0 26 C-0.66 26 -1.32 26 -2 26 C-2 24.68 -2 23.36 -2 22 C-1.34 22 -0.68 22 0 22 C0 21.01 0 20.02 0 19 C-0.99 19 -1.98 19 -3 19 C-3.33 19.66 -3.66 20.32 -4 21 C-4.33 18.69 -4.66 16.38 -5 14 C-4.34 14 -3.68 14 -3 14 C-3 13.01 -3 12.02 -3 11 C-2.01 11 -1.02 11 0 11 C0 9.68 0 8.36 0 7 C1.32 7 2.64 7 4 7 C4 6.01 4 5.02 4 4 C2.68 4 1.36 4 0 4 C0 2.68 0 1.36 0 0 Z M5 8 C5 8.99 5 9.98 5 11 C5.99 11 6.98 11 8 11 C8 10.01 8 9.02 8 8 C7.01 8 6.02 8 5 8 Z M1 11 C1 11.99 1 12.98 1 14 C1.99 14 2.98 14 4 14 C4 13.01 4 12.02 4 11 C3.01 11 2.02 11 1 11 Z M8 11 C8 11.99 8 12.98 8 14 C8.99 14 9.98 14 11 14 C11 13.01 11 12.02 11 11 C10.01 11 9.02 11 8 11 Z M5 15 C5 17.31 5 19.62 5 22 C5.99 22 6.98 22 8 22 C8 19.69 8 17.38 8 15 C7.01 15 6.02 15 5 15 Z " fill="#959393" transform="translate(121,43)"/>
<path d="M0 0 C1.65 0 3.3 0 5 0 C7.01953125 2.1875 7.01953125 2.1875 8.8125 5 C9.41707031 5.928125 10.02164063 6.85625 10.64453125 7.8125 C11.09183594 8.534375 11.53914063 9.25625 12 10 C12.33 6.7 12.66 3.4 13 0 C14.65 0 16.3 0 18 0 C18 7.59 18 15.18 18 23 C16.35 23 14.7 23 13 23 C10.98046875 20.8125 10.98046875 20.8125 9.1875 18 C8.58292969 17.071875 7.97835937 16.14375 7.35546875 15.1875 C6.68451172 14.1046875 6.68451172 14.1046875 6 13 C5.67 16.3 5.34 19.6 5 23 C3.35 23 1.7 23 0 23 C0 15.41 0 7.82 0 0 Z " fill="#0091D7" transform="translate(115,150)"/>
<path d="M0 0 C2.5625 1.375 2.5625 1.375 4 3 C4 3.66 4 4.32 4 5 C-0.07369424 7.03684712 -2.58937864 7.0257259 -7 6 C-4.06677021 8.0509381 -4.06677021 8.0509381 -0.9375 9.5 C2 11 2 11 4 13 C4.46084551 16.53314892 4.45379318 18.3283861 2.4375 21.3125 C-0.81435347 23.56378317 -3.05462518 23.9319763 -7 24 C-10.4375 22.5625 -10.4375 22.5625 -13 21 C-13 19.68 -13 18.36 -13 17 C-8.99799622 15.39919849 -5.95443764 16.70720308 -2 18 C-2 17.01 -2 16.02 -2 15 C-3.258125 14.731875 -4.51625 14.46375 -5.8125 14.1875 C-8.15109221 13.58319122 -9.91617348 13.049772 -12 11.8125 C-13.66773635 8.78972787 -13.42002226 6.36017809 -13 3 C-9.92734357 -1.14140649 -4.7008627 -0.65553315 0 0 Z " fill="#0090D7" transform="translate(226,150)"/>
<path d="M0 0 C1.98 0 3.96 0 6 0 C6.33 5.28 6.66 10.56 7 16 C8.65 16.33 10.3 16.66 12 17 C13.52106634 13.95786733 13.37429338 10.71952428 13.5625 7.375 C13.60568359 6.66859375 13.64886719 5.9621875 13.69335938 5.234375 C13.79944751 3.48981463 13.90022889 1.74493303 14 0 C15.65 0 17.3 0 19 0 C19.10829314 2.89684158 19.18743954 5.78961019 19.25 8.6875 C19.30027344 9.91243164 19.30027344 9.91243164 19.3515625 11.16210938 C19.41763975 15.24237939 19.3331167 17.44143339 17.19921875 21.01953125 C14.15629934 23.75978016 12.05475733 24 8 24 C4.42719659 22.70079876 3.24442431 21.3792791 1.1875 18.1875 C-1.01069251 12.48207898 -0.22461755 5.99812037 0 0 Z " fill="#0090D7" transform="translate(91,150)"/>
<path d="M0 0 C5.28 0 10.56 0 16 0 C16 1.98 16 3.96 16 6 C12.37 6 8.74 6 5 6 C5 6.66 5 7.32 5 8 C6.98 8 8.96 8 11 8 C11 9.98 11 11.96 11 14 C9.02 14 7.04 14 5 14 C5 15.32 5 16.64 5 18 C8.63 18 12.26 18 16 18 C16 19.65 16 21.3 16 23 C10.72 23 5.44 23 0 23 C0 15.41 0 7.82 0 0 Z " fill="#0090D7" transform="translate(171,150)"/>
<path d="M0 0 C1.98 0 3.96 0 6 0 C7.32 3.96 8.64 7.92 10 12 C10.45375 10.7625 10.9075 9.525 11.375 8.25 C12.4384007 5.40754505 13.55192483 2.67336954 15 0 C16.98 0 18.96 0 21 0 C18.81659819 7.86379677 16.00714974 15.41675284 13 23 C11.02 23 9.04 23 7 23 C5.82569926 19.7318568 4.66188744 16.46007485 3.5 13.1875 C3.16613281 12.25873047 2.83226562 11.32996094 2.48828125 10.37304688 C2.17246094 9.48037109 1.85664063 8.58769531 1.53125 7.66796875 C1.09135742 6.43469849 1.09135742 6.43469849 0.64257812 5.17651367 C0 3 0 3 0 0 Z " fill="#008FD7" transform="translate(147,150)"/>
<path d="M0 0 C1.98 0 3.96 0 6 0 C7.32 2.31 8.64 4.62 10 7 C12.77000825 3.67913229 12.77000825 3.67913229 15 0 C17.31 0 19.62 0 22 0 C21.43410156 0.90621094 20.86820312 1.81242188 20.28515625 2.74609375 C16.16478978 9.5245809 13 14.84709698 13 23 C11.35 23 9.7 23 8 23 C7.979375 21.7625 7.95875 20.525 7.9375 19.25 C7.35156028 13.49131118 4.54881418 9.31332295 1.49609375 4.50390625 C0 2 0 2 0 0 Z " fill="#0090D7" transform="translate(262,150)"/>
<path d="M0 0 C5.94 0 11.88 0 18 0 C18 1.98 18 3.96 18 6 C15.69 6 13.38 6 11 6 C11 11.61 11 17.22 11 23 C9.35 23 7.7 23 6 23 C6 17.39 6 11.78 6 6 C4.02 6 2.04 6 0 6 C0 4.02 0 2.04 0 0 Z " fill="#0091D8" transform="translate(243,150)"/>
<path d="M0 0 C0.66 0 1.32 0 2 0 C2.72826654 5.30020298 3.15726667 10.46754546 3.28125 15.82421875 C3.29965942 16.53351028 3.31806885 17.24280182 3.33703613 17.97358704 C3.41478329 20.96996838 3.48344746 23.96653649 3.55224609 26.96313477 C3.60420112 29.16693347 3.66132231 31.37055693 3.71875 33.57421875 C3.74904297 34.87963623 3.77933594 36.18505371 3.81054688 37.5300293 C3.89859434 40.91953021 3.89859434 40.91953021 4.64257812 43.83911133 C4.76052734 44.55220459 4.87847656 45.26529785 5 46 C4.34 46.66 3.68 47.32 3 48 C0.375 47.625 0.375 47.625 -2 47 C-2.042721 45.33388095 -2.04063832 43.66617115 -2 42 C-1.505 41.505 -1.505 41.505 -1 41 C-0.8396444 37.97192956 -0.74039552 34.96414546 -0.68359375 31.93359375 C-0.66281265 31.02497086 -0.64203156 30.11634796 -0.62062073 29.18019104 C-0.55502328 26.26604054 -0.4961932 23.35179696 -0.4375 20.4375 C-0.39432446 18.46678709 -0.35071049 16.49608374 -0.30664062 14.52539062 C-0.19933157 9.68369012 -0.09809325 4.84189563 0 0 Z " fill="#1F1F1E" transform="translate(70,97)"/>
<path d="M0 0 C2.08990827 0.14746311 4.18337848 0.24733105 6.27734375 0.31640625 C7.51419922 0.35830078 8.75105469 0.40019531 10.02539062 0.44335938 C11.31638672 0.48267578 12.60738281 0.52199219 13.9375 0.5625 C15.19369141 0.60568359 16.44988281 0.64886719 17.74414062 0.69335938 C25.83221256 0.95642005 33.90793329 1.05378207 42 1 C42 1.99 42 2.98 42 4 C28.14 4 14.28 4 0 4 C0 4.66 0 5.32 0 6 C-1.66611905 6.042721 -3.33382885 6.04063832 -5 6 C-6 5 -6 5 -6.0625 2.4375 C-6.041875 1.633125 -6.02125 0.82875 -6 0 C-3.42982994 -1.28508503 -2.74189898 -0.70414871 0 0 Z " fill="#1B1C1B" transform="translate(9,71)"/>
<path d="M0 0 C1.67542976 0.28604898 3.34385343 0.61781233 5 1 C5.5625 2.9375 5.5625 2.9375 6 5 C5.67 5.33 5.34 5.66 5 6 C4.84902777 7.34879246 4.76217763 8.70487155 4.70288086 10.06079102 C4.6429319 11.35201622 4.6429319 11.35201622 4.58177185 12.66932678 C4.54318558 13.60473801 4.5045993 14.54014923 4.46484375 15.50390625 C4.42186661 16.45692123 4.37888947 17.40993622 4.33460999 18.39183044 C4.19779275 21.4485419 4.06758022 24.50549513 3.9375 27.5625 C3.84613661 29.6295765 3.75434543 31.69663413 3.66210938 33.76367188 C3.43643386 38.84224202 3.21668301 43.92103856 3 49 C2.34 49 1.68 49 1 49 C0.97494385 47.73293213 0.9498877 46.46586426 0.92407227 45.16040039 C0.83018004 40.47702221 0.72991565 35.7937987 0.62768555 31.1105957 C0.58426759 29.08035896 0.54259774 27.05008408 0.50268555 25.01977539 C0.44514854 22.10811849 0.38140722 19.19665486 0.31640625 16.28515625 C0.29969376 15.3716188 0.28298126 14.45808136 0.26576233 13.51686096 C0.5769315 9.43210684 0.5769315 9.43210684 -1 6 C-1.125 3.5 -1.125 3.5 -1 1 C-0.67 0.67 -0.34 0.34 0 0 Z " fill="#222221" transform="translate(69,3)"/>
<path d="M0 0 C1.98 0 3.96 0 6 0 C6 7.59 6 15.18 6 23 C4.02 23 2.04 23 0 23 C0 15.41 0 7.82 0 0 Z " fill="#0090D6" transform="translate(138,150)"/>
<path d="M0 0 C1.65 0 3.3 0 5 0 C5 7.59 5 15.18 5 23 C3.35 23 1.7 23 0 23 C0 15.41 0 7.82 0 0 Z " fill="#0092D9" transform="translate(234,150)"/>
<path d="M0 0 C1.65 0 3.3 0 5 0 C5 5.28 5 10.56 5 16 C4.01 16.33 3.02 16.66 2 17 C2 16.01 2 15.02 2 14 C1.34 14 0.68 14 0 14 C0 9.38 0 4.76 0 0 Z " fill="#00A8E4" transform="translate(91,150)"/>
<path d="M0 0 C0 0.99 0 1.98 0 3 C-7.59 3 -15.18 3 -23 3 C-23 2.67 -23 2.34 -23 2 C-15.27111181 0.04596958 -7.94957992 -0.22428282 0 0 Z " fill="#262625" transform="translate(51,72)"/>
<path d="M0 0 C1.32 0 2.64 0 4 0 C4 3.63 4 7.26 4 11 C2.68 11 1.36 11 0 11 C0 7.37 0 3.74 0 0 Z " fill="#979595" transform="translate(140,32)"/>
<path d="M0 0 C1.2065625 0.0309375 1.2065625 0.0309375 2.4375 0.0625 C3.0625 2.4375 3.0625 2.4375 3.4375 5.0625 C2.7775 5.7225 2.1175 6.3825 1.4375 7.0625 C-1.1875 6.6875 -1.1875 6.6875 -3.5625 6.0625 C-3.605221 4.39638095 -3.60313832 2.72867115 -3.5625 1.0625 C-2.5625 0.0625 -2.5625 0.0625 0 0 Z " fill="#D21F17" transform="translate(71.5625,137.9375)"/>
<path d="M0 0 C2.125 0.375 2.125 0.375 4 1 C4.38218767 2.65614657 4.71395102 4.32457024 5 6 C4 7 4 7 1.4375 7.0625 C0.2309375 7.0315625 0.2309375 7.0315625 -1 7 C-1.625 4.625 -1.625 4.625 -2 2 C-1.34 1.34 -0.68 0.68 0 0 Z " fill="#D42118" transform="translate(243,70)"/>
<path d="M0 0 C1.125 3.75 1.125 3.75 0 6 C-1.66611905 6.042721 -3.33382885 6.04063832 -5 6 C-6 5 -6 5 -6.0625 2.4375 C-6.041875 1.633125 -6.02125 0.82875 -6 0 C-3.50907189 -1.24546405 -2.58919267 -0.7767578 0 0 Z " fill="#D02018" transform="translate(9,71)"/>
<path d="M0 0 C1.67542976 0.28604898 3.34385343 0.61781233 5 1 C5.625 2.875 5.625 2.875 6 5 C5.34 5.66 4.68 6.32 4 7 C1.375 6.625 1.375 6.625 -1 6 C-1.042721 4.33388095 -1.04063832 2.66617115 -1 1 C-0.67 0.67 -0.34 0.34 0 0 Z " fill="#D42118" transform="translate(69,3)"/>
<path d="M0 0 C1.67542976 0.28604898 3.34385343 0.61781233 5 1 C4.67 2.65 4.34 4.3 4 6 C2.0625 6.5625 2.0625 6.5625 0 7 C-1 6 -1 6 -1.125 3.5 C-1 1 -1 1 0 0 Z " fill="#FDF3E6" transform="translate(61,62)"/>
<path d="M0 0 C2.97 0 5.94 0 9 0 C9 0.99 9 1.98 9 3 C6.03 3 3.06 3 0 3 C0 2.01 0 1.02 0 0 Z " fill="#242420" transform="translate(91,72)"/>
<path d="M0 0 C1.65 0 3.3 0 5 0 C5 1.65 5 3.3 5 5 C3.35 5 1.7 5 0 5 C0 3.35 0 1.7 0 0 Z " fill="#919090" transform="translate(147,57)"/>
<path d="M0 0 C0.33 0.66 0.66 1.32 1 2 C1.66 2 2.32 2 3 2 C2.67 2.66 2.34 3.32 2 4 C2 4.99 2 5.98 2 7 C1.01 8.485 1.01 8.485 0 10 C-0.99 9.01 -1.98 8.02 -3 7 C-2.690625 6.401875 -2.38125 5.80375 -2.0625 5.1875 C-0.89790296 2.91043228 -0.89790296 2.91043228 0 0 Z " fill="#0099DD" transform="translate(162,152)"/>
<path d="M0 0 C0.86625 0.3403125 0.86625 0.3403125 1.75 0.6875 C0.574375 1.30625 0.574375 1.30625 -0.625 1.9375 C-3.30891656 3.7267777 -4.13098949 4.73738139 -5.25 7.6875 C-5.58 6.0375 -5.91 4.3875 -6.25 2.6875 C-2.80384615 -0.38942308 -2.80384615 -0.38942308 0 0 Z " fill="#F6900E" transform="translate(64.25,59.3125)"/>
<path d="M0 0 C1.32 0 2.64 0 4 0 C4 1.65 4 3.3 4 5 C2.68 5 1.36 5 0 5 C0 3.35 0 1.7 0 0 Z " fill="#959393" transform="translate(140,46)"/>
<path d="M0 0 C1.32 0 2.64 0 4 0 C4 1.32 4 2.64 4 4 C2.35 4 0.7 4 -1 4 C-0.67 2.68 -0.34 1.36 0 0 Z " fill="#969494" transform="translate(133,65)"/>
<path d="M0 0 C1.32 0 2.64 0 4 0 C4 1.32 4 2.64 4 4 C2.68 4 1.36 4 0 4 C0 2.68 0 1.36 0 0 Z " fill="#989595" transform="translate(151,39)"/>
<path d="M0 0 C1.32 0 2.64 0 4 0 C4 1.32 4 2.64 4 4 C2.68 4 1.36 4 0 4 C0 2.68 0 1.36 0 0 Z " fill="#969494" transform="translate(144,28)"/>
</svg>
