<?xml version="1.0" encoding="UTF-8"?>
<svg version="1.1" xmlns="http://www.w3.org/2000/svg" width="1280" height="1399">
<path d="M0 0 C5.18208498 0.28301406 8.72124528 3.30816584 12.8125 6.1875 C34.47075541 20.96539495 57.81822493 32.8425929 81 45 C111.71151683 61.10708885 141.51913454 78.19448197 167 102 C167.86367188 102.79792969 168.72734375 103.59585938 169.6171875 104.41796875 C182.21858318 116.48974056 192.1029105 130.48546857 200 146 C200.31662598 146.61020996 200.63325195 147.22041992 200.95947266 147.84912109 C207.83921356 161.23138473 212.24290289 175.40589961 215.25 190.125 C215.47659302 191.23137817 215.47659302 191.23137817 215.70776367 192.36010742 C218.51037145 207.07498379 219.34949182 221.62214414 219.31567383 236.57470703 C219.31250348 239.49679591 219.33611767 242.41787814 219.36132812 245.33984375 C219.44449862 269.89962319 215.19327189 294.07036167 197.625 312.55859375 C169.95964409 338.28902149 128.74346481 342.34891715 92.6484375 343.203125 C91.43414063 343.23390137 90.21984375 343.26467773 88.96875 343.29638672 C86.62793331 343.34759208 84.28664929 343.38135284 81.9453125 343.39501953 C74.46810131 343.54740835 69.65918981 344.31678925 64.21484375 349.796875 C51.57462487 369.1244268 49.26549999 393.59710089 47 416 C46.89413574 417.00546875 46.78827148 418.0109375 46.67919922 419.046875 C43.82758827 447.53586937 44.81116073 476.40391062 45 505 C45.30180176 504.4982576 45.60360352 503.9965152 45.91455078 503.47956848 C47.31432161 501.15729571 48.71962778 498.83841817 50.125 496.51953125 C50.599375 495.73066528 51.07375 494.94179932 51.5625 494.12902832 C64.2281502 473.27456458 81.17216668 452.58396151 100 437 C101.03708408 436.10378852 102.0720437 435.20511577 103.10546875 434.3046875 C109.60456459 428.6550986 116.21559438 423.21220618 123.02319336 417.93896484 C127.39203899 414.53337295 131.5097649 410.91633387 135.58984375 407.16796875 C138.96328331 404.1335134 142.48934147 401.30311771 146.015625 398.44921875 C149.38761363 395.681893 152.69665446 392.8485306 156 390 C160.12455611 386.44532786 164.27208312 382.9320737 168.5 379.5 C177.87276488 371.87516631 187.02412451 364.00625544 195.88256836 355.7890625 C198.53484987 353.32969849 201.22729962 350.94699394 204 348.625 C232.40068223 323.7450635 247.04920123 290.26325331 250 253 C250.14193672 249.8926112 250.18583815 246.79005308 250.203125 243.6796875 C250.21013931 242.82622742 250.21715363 241.97276733 250.22438049 241.09344482 C250.24177817 238.35390882 250.24823283 235.61458922 250.25 232.875 C250.25067474 231.93758972 250.25134949 231.00017944 250.25204468 230.03436279 C250.19652161 181.45323456 236.09588451 144.45615403 206.28515625 106.54296875 C205.83140625 105.96240723 205.37765625 105.3818457 204.91015625 104.78369141 C204.03682772 103.66829898 203.15822746 102.5570062 202.2734375 101.45068359 C199.90900831 98.43297562 198.22572305 95.6369815 197 92 C259.67287026 101.9025741 324.57137195 127.17178718 373 169 C374.20462891 170.03833984 374.20462891 170.03833984 375.43359375 171.09765625 C399.85232968 192.62521384 423.82352159 221.14465573 426.22241211 255.15307617 C426.70666716 269.44641062 426.82969737 283.4120192 422 297 C421.73155273 297.75539063 421.46310547 298.51078125 421.18652344 299.2890625 C413.26773852 320.82675437 400.13105583 339.06413071 384.37353516 355.5546875 C383.02888366 356.96960695 381.70748223 358.40650663 380.38671875 359.84375 C350.41665096 391.4566215 306.62044844 394.76791833 265.625 397.5 C226.37010165 400.12093505 186.18644938 402.90770681 154 428 C153.05495605 428.73524902 153.05495605 428.73524902 152.09082031 429.48535156 C135.13336677 442.7874043 118.86576382 457.45456048 105 474 C104.23042969 474.88042969 103.46085938 475.76085937 102.66796875 476.66796875 C85.74003269 496.12890556 71.20034093 517.29459479 59 540 C58.65340332 540.63196289 58.30680664 541.26392578 57.94970703 541.91503906 C42.34139657 570.52172174 39.80797684 600.32801161 39.79296875 632.390625 C39.79207811 633.18740095 39.79118748 633.9841769 39.79026985 634.80509758 C39.80337197 661.3751768 41.08520393 687.93518738 42.17036796 714.47871369 C42.41181476 720.39727056 42.64467153 726.3161416 42.87535518 732.23512655 C43.15475487 739.40198039 43.43995143 746.56859497 43.72689939 753.7351501 C43.80815973 755.77426504 43.88834809 757.81341974 43.96829033 759.85258675 C44.11751052 763.63114014 44.27175356 767.40945445 44.42749023 771.18774414 C44.47064865 772.30179626 44.51380707 773.41584839 44.55827332 774.56365967 C44.76465064 779.45120009 45.01336373 784.19297369 46 789 C48.87413125 789.33397787 48.87413125 789.33397787 52 789 C54.90042891 786.06741931 55.37458175 783.87734268 55.40625 779.828125 C55.4357373 778.26783569 55.4357373 778.26783569 55.46582031 776.67602539 C55.47709961 775.54543701 55.48837891 774.41484863 55.5 773.25 C56.73739122 723.12545715 65.85936412 673.3005839 88 628 C88.34466309 627.28618164 88.68932617 626.57236328 89.04443359 625.83691406 C97.22785165 609.06653338 107.61992799 592.9805376 120 579 C120.67804687 578.21367188 121.35609375 577.42734375 122.0546875 576.6171875 C124.32420435 574.03176721 126.64609813 571.50890613 129 569 C129.49064941 568.47535156 129.98129883 567.95070313 130.48681641 567.41015625 C139.53157099 557.82000325 149.25659672 549.62975255 160 542 C160.5765332 541.58943359 161.15306641 541.17886719 161.74707031 540.75585938 C201.30835817 513.02752986 249.31932191 501.78684996 297.0625 501.75 C297.86334015 501.74932526 298.6641803 501.74865051 299.48928833 501.74795532 C327.50411973 501.7848174 355.26542045 505.1175888 383.06811523 508.28588867 C398.71552638 510.05892148 414.17071983 511.18695604 429.9375 511.125 C431.24436768 511.12016602 432.55123535 511.11533203 433.89770508 511.11035156 C478.51928052 510.8331817 516.60625097 497.34716623 548.46484375 465.5390625 C560.62531978 452.6926109 567.88387766 437.52907309 570 420 C583.45253322 425.68331741 593.71772714 447.27397941 599 460 C609.88466147 488.12537133 613.74263692 518.35881049 607 548 C606.73316406 549.2065625 606.46632813 550.413125 606.19140625 551.65625 C600.85982162 572.69823736 588.00521717 592.55756242 569.625 604.375 C549.41971743 616.02639526 523.84363431 620.03859668 501 614.5 C498.64338828 613.73497054 496.30944538 612.89741346 494 612 C492.95803467 611.5973291 492.95803467 611.5973291 491.89501953 611.18652344 C474.63678231 604.37674052 460.18618944 594.63402268 446.06054688 582.73388672 C439.75695706 577.42961008 433.38146799 572.21014538 427 567 C426.14825195 566.30197266 426.14825195 566.30197266 425.27929688 565.58984375 C390.65949587 537.40604463 352.87013308 528.76214958 309 528.8125 C308.02945679 528.81310425 307.05891357 528.8137085 306.05895996 528.81433105 C244.85385037 528.91746736 191.85740065 539.56455378 147.0625 583.75 C143.21718624 587.7082037 139.52587173 591.75470798 136 596 C135.16597656 596.99515625 134.33195313 597.9903125 133.47265625 599.015625 C108.36321748 629.55449393 87.81094381 682.65473093 91 723 C91.86653414 725.93080674 91.86653414 725.93080674 93 728 C94.9018188 728.02255384 94.9018188 728.02255384 97 727 C98.40427879 724.72801183 99.52180923 722.60171659 100.625 720.1875 C101.32909719 718.71989377 102.03354023 717.25245342 102.73828125 715.78515625 C103.10646973 715.00543457 103.4746582 714.22571289 103.85400391 713.42236328 C122.87209859 673.22263268 148.55837573 633.19431799 192.3671875 617.375 C237.84426932 601.82740272 283.57245588 604.65226569 326.51171875 625.67578125 C346.6879056 635.90488863 365.10266585 649.26653543 383 663 C383.60585938 663.4640625 384.21171875 663.928125 384.8359375 664.40625 C392.05801201 669.95684002 399.07666686 675.70123144 405.96362305 681.66235352 C409.41046119 684.6457431 412.89315801 687.56951913 416.4375 690.4375 C421.54227843 694.57996379 426.49622682 698.88119099 431.45068359 703.20068359 C435.96668641 707.1287908 440.56028468 710.94362488 445.21484375 714.70703125 C447.80985416 716.84345637 450.35008772 719.02887135 452.88427734 721.23632812 C460.64481013 727.9846175 468.69330329 734.28358673 476.92578125 740.44482422 C478.88480091 741.9136278 480.83358855 743.39509575 482.78125 744.87890625 C509.62759832 765.16114543 538.78587651 781.32454054 573.4375 777.25 C600.8557839 773.16822262 621.49794274 759.15839062 637.81518555 737.16479492 C638.85717082 735.76174428 639.92601362 734.3787087 641 733 C641.33 733 641.66 733 642 733 C643.05088791 773.49960317 640.09253845 821.3194442 610.80078125 852.328125 C593.55009428 869.09408193 571.39833891 872.56632097 548.19140625 872.26953125 C522.21580595 871.47813896 501.74418108 852.9307745 484.81298828 834.98583984 C480.69172823 830.47165599 476.96659143 825.68444759 473.32861328 820.77734375 C471.96017435 818.9467235 470.56022973 817.14416925 469.15234375 815.34375 C460.65540629 804.38709856 453.32386473 792.76065903 446 781 C432.58984794 759.53318792 418.53548556 739.18837499 402 720 C401.12988281 718.97712891 401.12988281 718.97712891 400.2421875 717.93359375 C363.90108708 675.65738899 314.33718029 638.08104652 257.01635742 633.39648438 C222.34118258 631.10675951 189.18810162 643.53724358 163.1640625 666.31640625 C121.43524397 703.77307521 103.76778854 758.90394346 96.75 813.0625 C96.50515869 814.95137939 96.50515869 814.95137939 96.25537109 816.87841797 C94.54366652 830.7634592 93.79548165 844.59876487 93.75976562 858.57861328 C93.75003582 860.86657779 93.71884584 863.15364939 93.6875 865.44140625 C93.52814005 887.73135748 98.11268372 910.64115661 113 928 C114.68958853 929.51672562 114.68958853 929.51672562 116.4375 930.6875 C116.99308594 931.08324219 117.54867187 931.47898437 118.12109375 931.88671875 C128.48840285 938.02951105 141.7056701 936.35829687 153 934 C159.32615095 932.137795 163.3132163 929.63861037 167 924 C170.77482051 916.06970481 171.16658485 908.25032971 171.125 899.59375 C171.12234131 898.58332642 171.11968262 897.57290283 171.11694336 896.53186035 C171.0557488 886.51570532 170.62949073 876.52514064 170.14440918 866.52203369 C165.1225334 761.42983771 165.1225334 761.42983771 188.875 734.90625 C196.58978046 727.56476537 205.37925941 725.28852161 215.8125 725.5 C217.25435669 725.51812744 217.25435669 725.51812744 218.7253418 725.53662109 C231.07337796 725.87970874 241.43017806 729.10574569 250.70703125 737.5546875 C258.62470664 745.93339209 261.90012977 757.37370912 262.03125 768.69921875 C261.48592941 777.60157737 257.58353416 785.01006318 251 791 C243.83364468 796.18506885 237.51515768 800.26968274 228.5 800.375 C227.3965625 800.40335938 226.293125 800.43171875 225.15625 800.4609375 C221.27129408 799.89358008 219.71607807 798.80215097 217 796 C213.6272587 790.65565622 214.94892932 783.54640763 215.16601562 777.484375 C215.18470703 776.56914063 215.20339844 775.65390625 215.22265625 774.7109375 C215.25109619 773.87868652 215.27953613 773.04643555 215.30883789 772.18896484 C214.92355925 769.45820731 214.17419903 768.64490919 212 767 C208.43682497 765.91555543 206.69706457 765.69899485 203.25 767.1875 C199.98924344 769.81422056 199.13109155 771.83084627 198.6640625 775.99609375 C198.48068388 792.15174975 204.60283815 803.9838723 213.05078125 817.2109375 C229.96657183 843.8163557 233.64921921 872.98251613 233 904 C232.98743164 904.74040527 232.97486328 905.48081055 232.96191406 906.24365234 C232.66339059 920.39305548 231.31406649 935.05657322 223 947 C222.29875 948.03125 221.5975 949.0625 220.875 950.125 C210.68705959 961.51524394 194.54825235 964.75526929 180 966 C174.76454551 966.24876921 169.52601077 966.18456342 164.2866497 966.11976433 C161.74055486 966.08902223 159.1946972 966.07263013 156.64845276 966.05970764 C149.42015683 966.0204182 142.19215257 965.9550314 134.96411133 965.88354492 C130.51297793 965.84049511 126.06193935 965.81261321 121.61064339 965.79324532 C119.93273267 965.78279042 118.25484628 965.7665247 116.57705498 965.74394035 C101.29856092 965.53843833 88.30141145 967.36131262 75.1875 975.8125 C69.23464182 981.76535818 65.99386364 988.78692805 65.625 997.1875 C65.85203851 1007.64546137 70.53879131 1017.10940881 77.58984375 1024.71484375 C87.28743436 1033.68226283 99.02334635 1036.17408926 111.91015625 1035.94921875 C119.32193206 1035.02134938 125.69559283 1031.43365819 132.203125 1027.97265625 C142.04110052 1022.79865616 152.05643015 1020.21057777 163.06640625 1023.28125 C167.78414798 1025.03491561 170.35338095 1026.87919365 172.875 1031.25 C175.12779794 1038.75932648 174.24216122 1044.97326276 171 1052 C164.22554528 1064.02856976 151.69538007 1069.30173309 139 1073 C125.0628495 1076.60732828 111.44673389 1078.11451671 97.08398438 1078.51757812 C91.43281315 1078.72600685 86.4340681 1079.41906382 81 1081 C81.7275356 1084.95068748 83.38664853 1086.80649901 86.51953125 1089.3515625 C97.58281002 1096.7038517 110.23442257 1100.77360787 123.3359375 1102.27734375 C126.59715661 1103.1619853 127.91867316 1104.37171982 130 1107 C130.60226822 1110.61360931 130.49849691 1112.26222457 128.4375 1115.3125 C123.05798166 1119.03678192 116.4898189 1118.00977719 110.3125 1117.25 C109.5179541 1117.15348145 108.7234082 1117.05696289 107.90478516 1116.95751953 C89.57988091 1114.60607733 73.1654538 1108.21929038 61.0859375 1093.69921875 C42.81573347 1069.11090452 37.72521932 1035.81765538 32.77319336 1006.42382812 C31.26221441 997.92207163 29.04812387 990.69285119 22.0234375 985.25390625 C13.20550814 979.78951373 1.98479934 979.7333741 -7.97265625 981.5390625 C-15.19694131 983.52219958 -20.70636034 986.71288478 -25 993 C-27.17189827 997.5672561 -27.97643152 1002.33863684 -28.91796875 1007.26953125 C-29.28482155 1009.13593744 -29.6522761 1011.00222542 -30.02026367 1012.8684082 C-30.21059174 1013.84008942 -30.4009198 1014.81177063 -30.59701538 1015.81289673 C-33.93890884 1032.78938386 -37.35334022 1049.61116794 -43 1066 C-43.25346191 1066.73863281 -43.50692383 1067.47726562 -43.76806641 1068.23828125 C-50.02959782 1086.04234978 -60.18591734 1100.88365439 -77.22265625 1109.66015625 C-89.32687666 1115.21417847 -106.98505503 1120.77465182 -120.28515625 1117.08984375 C-124.44410583 1115.42027982 -124.44410583 1115.42027982 -126 1113 C-126.4375 1110.0625 -126.4375 1110.0625 -126 1107 C-123.3413713 1103.4241444 -120.981505 1102.49148912 -116.61987305 1101.83666992 C-115.94093994 1101.74619385 -115.26200684 1101.65571777 -114.5625 1101.5625 C-101.69090883 1099.48388524 -85.37497958 1094.68531878 -77 1084 C-77 1083.01 -77 1082.02 -77 1081 C-83.1862374 1079.20886847 -88.83165143 1078.70199203 -95.25 1078.5625 C-117.60423218 1077.77292995 -145.19902636 1075.00531586 -162.3125 1058.92578125 C-167.95912119 1052.48183624 -170.37233801 1045.60891432 -170.2109375 1037.0546875 C-169.70794797 1032.15519687 -168.03587543 1028.91255692 -164.375 1025.6875 C-156.23232117 1021.61616059 -147.89195311 1021.00148285 -139 1023 C-134.0834959 1024.93953832 -129.48122971 1027.54656897 -124.83349609 1030.04589844 C-113.29403182 1036.05072219 -101.5719586 1037.38281617 -89 1034 C-77.75431172 1029.81745024 -70.27925755 1022.69008538 -65 1012 C-61.20506526 1003.60818205 -60.78215568 995.92680443 -63.75 987.1875 C-66.960225 979.27857198 -71.54763636 975.0187561 -79 971 C-87.52474539 967.54195181 -95.51145401 965.82905085 -104.7109375 965.91821289 C-105.8343177 965.92281273 -105.8343177 965.92281273 -106.98039246 965.92750549 C-108.59925419 965.93463097 -110.21810727 965.94400529 -111.83694458 965.95540047 C-114.4120542 965.97290817 -116.98710069 965.9831289 -119.56225586 965.99131775 C-126.88189671 966.01565392 -134.20145316 966.05101224 -141.52099609 966.09594727 C-146.00831541 966.12298403 -150.49558524 966.13986231 -154.98297119 966.15081596 C-156.67956359 966.1569592 -158.37614725 966.16687841 -160.07269287 966.18089485 C-178.93580879 966.33523397 -198.6799141 965.37391554 -214 953 C-227.33532011 939.8667302 -228.44405068 921.57235905 -229 904 C-229.02336426 903.26716797 -229.04672852 902.53433594 -229.07080078 901.77929688 C-229.98121816 867.78018072 -223.20894459 838.4536929 -204.75 809.75 C-200.89814849 803.75075213 -197.9223167 797.9155041 -196 791 C-195.81179688 790.38382813 -195.62359375 789.76765625 -195.4296875 789.1328125 C-194.21166995 783.08701628 -193.38674084 774.68313484 -196.625 769.1875 C-199.54110607 766.50161283 -201.04256007 765.91923592 -205 766 C-207.32731556 767.13779872 -209.16840714 768.16840714 -211 770 C-211.05055974 771.4926358 -211.03561721 772.98760848 -210.9921875 774.48046875 C-210.97542969 775.39763672 -210.95867187 776.31480469 -210.94140625 777.25976562 C-210.89757378 779.19226206 -210.845656 781.12459416 -210.78515625 783.05664062 C-210.7021726 788.46189384 -210.80833684 792.39856634 -214 797 C-217.10033145 800.1471037 -219.65301801 800.48259224 -224 800.5625 C-233.39434822 800.3408356 -241.64495128 796.07228878 -248.47265625 789.6953125 C-255.18939511 782.23990415 -258.30421156 775.36398516 -257.875 765.25 C-256.78791601 753.46700912 -252.49729787 742.77159829 -243.625 734.6875 C-234.28571968 727.27765342 -224.27101199 725.64024347 -212.625 725.625 C-211.64789063 725.60050781 -210.67078125 725.57601562 -209.6640625 725.55078125 C-199.43293264 725.50996557 -191.49898768 728.52389894 -184.09765625 735.625 C-155.30417722 768.22543808 -164.41276787 829.38639392 -166.28808594 869.07836914 C-166.75898999 879.24071271 -167.10227179 889.3883425 -167.140625 899.5625 C-167.14731201 900.50741806 -167.15399902 901.45233612 -167.16088867 902.42588806 C-167.14852507 911.53832811 -166.37899299 920.93138614 -160 928 C-152.68793334 933.81382583 -144.60208471 935.23603893 -135.5 935.75 C-134.43845703 935.83314453 -134.43845703 935.83314453 -133.35546875 935.91796875 C-124.72967275 936.43835498 -116.97946472 934.15500816 -110 929 C-96.33241463 916.06914321 -90.5700885 893.53102891 -89.85473633 875.29736328 C-89.84724365 873.98493652 -89.83975098 872.67250977 -89.83203125 871.3203125 C-89.82775116 870.5993338 -89.82347107 869.8783551 -89.81906128 869.13552856 C-89.80907918 866.79862226 -89.80901339 864.46192363 -89.8125 862.125 C-89.81343658 861.31977905 -89.81437317 860.51455811 -89.81533813 859.68493652 C-89.98180955 793.49327745 -104.90100322 721.45574635 -152.4765625 672.47998047 C-176.31126582 648.7807016 -208.77301562 633.37928433 -242.61914062 632.97705078 C-280.65653523 633.34369507 -315.79887779 648.54545349 -346 671 C-346.60247559 671.44698242 -347.20495117 671.89396484 -347.82568359 672.35449219 C-355.58486436 678.16603281 -362.82885143 684.41603392 -369.8671875 691.078125 C-372.16392111 693.25029883 -374.52682858 695.3242498 -376.92578125 697.3828125 C-380.9757605 700.90872213 -384.66693841 704.68663001 -388.3125 708.625 C-389.28896484 709.6763916 -389.28896484 709.6763916 -390.28515625 710.74902344 C-409.91894116 732.01573633 -426.06689935 755.43025191 -441.32543945 779.94628906 C-463.77555724 815.94120745 -491.35335296 859.98254832 -535.05517578 871.40673828 C-540.05821943 872.41464709 -544.97293126 872.48846337 -550.0625 872.4375 C-551.15232178 872.42847656 -552.24214355 872.41945313 -553.36499023 872.41015625 C-573.53529721 871.98330281 -592.08630102 866.05070012 -607 852 C-607.68191406 851.35933594 -608.36382813 850.71867188 -609.06640625 850.05859375 C-635.44674269 822.85225852 -638.56195844 775.18416162 -638.15332031 739.65307617 C-638.11366752 737.43514975 -638.05881388 735.21750105 -638 733 C-634.85762447 736.04664007 -631.97979382 739.15564524 -629.20947266 742.55395508 C-614.69591612 760.32018391 -596.0769455 773.48133702 -573 777 C-572.35933594 777.10957031 -571.71867188 777.21914063 -571.05859375 777.33203125 C-536.49177707 782.25140744 -506.81709437 766.08859264 -480 746 C-479.42733398 745.57364258 -478.85466797 745.14728516 -478.26464844 744.70800781 C-465.77946272 735.37557202 -453.73750073 725.43575999 -441.9465332 715.24536133 C-438.42754712 712.20736229 -434.86433058 709.2374211 -431.25 706.3125 C-427.7411601 703.46541499 -424.34133363 700.54187448 -421 697.5 C-416.75482755 693.63589028 -412.37295785 689.98806366 -407.91015625 686.37890625 C-405.33084805 684.27045163 -402.79040324 682.1266891 -400.25976562 679.96069336 C-393.9112231 674.53086913 -387.41625611 669.34928286 -380.74511719 664.31982422 C-378.9093306 662.93142715 -377.08341668 661.53065928 -375.2578125 660.12890625 C-356.05621128 645.46114984 -335.87353795 632.31685978 -314 622 C-312.87207031 621.46503906 -311.74414062 620.93007813 -310.58203125 620.37890625 C-290.0576994 611.11528636 -268.16446969 606.21017714 -245.625 607.25 C-244.06797363 607.32105957 -244.06797363 607.32105957 -242.47949219 607.39355469 C-202.47796065 609.5014636 -166.22086804 621.27721706 -138.46972656 651.33935547 C-121.58330017 670.41933426 -109.51070758 693.11244794 -98.60546875 715.984375 C-98.24541748 716.73251465 -97.88536621 717.4806543 -97.5144043 718.25146484 C-96.85794649 719.62568145 -96.21398154 721.00596573 -95.58520508 722.39306641 C-93.96483986 725.92283794 -93.96483986 725.92283794 -90.78125 727.9140625 C-90.1934375 727.94242188 -89.605625 727.97078125 -89 728 C-84.75916929 719.78339051 -87.4754453 709.82262471 -89.0625 701.1875 C-89.28437988 699.970625 -89.50625977 698.75375 -89.73486328 697.5 C-94.67127981 671.23542976 -101.16572307 645.56994955 -114 622 C-114.55300781 620.95585938 -115.10601563 619.91171875 -115.67578125 618.8359375 C-137.39690535 579.54092063 -177.42864192 549.69932492 -220.01513672 537.06640625 C-273.62077544 522.14723435 -346.69441422 520.80964307 -396.375 548.4375 C-402.92048526 552.18332902 -409.05578871 556.35203416 -415 561 C-415.82757813 561.64710938 -416.65515625 562.29421875 -417.5078125 562.9609375 C-420.02156443 564.95460282 -422.51445375 566.9712987 -425 569 C-425.82757813 569.67546875 -426.65515625 570.3509375 -427.5078125 571.046875 C-428.80332031 572.10648438 -428.80332031 572.10648438 -430.125 573.1875 C-431.04023438 573.93515625 -431.95546875 574.6828125 -432.8984375 575.453125 C-435.18561181 577.3254026 -437.45748962 579.21521249 -439.7265625 581.109375 C-457.0754955 595.51314802 -475.13419029 607.76643215 -497 614 C-498.81564453 614.54914063 -498.81564453 614.54914063 -500.66796875 615.109375 C-521.0278611 620.05920094 -546.35300941 615.75635307 -564.234375 605.06640625 C-587.87204191 589.50216783 -598.91003341 567.54062679 -604.54638672 540.44799805 C-610.93118464 505.99139482 -602.48275009 467.33571716 -583.1640625 438.234375 C-578.61297475 431.79449589 -573.70977646 425.46101027 -568 420 C-567.34 420 -566.68 420 -566 420 C-565.84144531 420.94359375 -565.68289063 421.8871875 -565.51953125 422.859375 C-560.8242906 448.69616884 -545.11250583 468.85298607 -523.76855469 483.77783203 C-515.57629896 489.33580646 -507.00978727 493.91691288 -498 498 C-497.38688965 498.27827637 -496.7737793 498.55655273 -496.14208984 498.84326172 C-449.89059303 519.42846995 -396.37116232 510.52459993 -347.75878906 505.12060547 C-330.0861377 503.16081252 -312.66137082 501.78583856 -294.875 501.8125 C-294.06163177 501.81343658 -293.24826355 501.81437317 -292.4102478 501.81533813 C-263.79563748 501.88654232 -236.2010846 505.82053744 -209 515 C-208.32388672 515.22236328 -207.64777344 515.44472656 -206.95117188 515.67382812 C-165.45782953 529.4774723 -128.94776615 558.3351737 -104 594 C-103.5551123 594.62680664 -103.11022461 595.25361328 -102.65185547 595.89941406 C-66.86094676 646.59543139 -52.80603406 709.77630196 -51.48242188 771.01757812 C-51.30985072 777.01198389 -51.06338178 782.3444961 -49 788 C-45.41672247 789.00217064 -45.41672247 789.00217064 -42 788 C-40.94897826 784.84693477 -40.7797882 782.39465373 -40.63850403 779.07974243 C-40.58375412 777.84172379 -40.52900421 776.60370514 -40.47259521 775.32817078 C-40.41627266 773.9526717 -40.36006313 772.577168 -40.30395508 771.20166016 C-40.24177724 769.75386673 -40.17926378 768.30608768 -40.11643982 766.85832214 C-39.94664373 762.91211495 -39.78289869 758.96568028 -39.62116838 755.019135 C-39.51943908 752.53681335 -39.41688762 750.05452681 -39.31415367 747.57224655 C-38.99138146 739.76034399 -38.672854 731.94828241 -38.3594988 724.13599646 C-38.00132467 715.20961469 -37.62902249 706.28397762 -37.2439087 697.35871851 C-36.94520023 690.41340386 -36.66048419 683.46759335 -36.38535041 676.52130544 C-36.22175205 672.39888387 -36.05296069 668.27686651 -35.86915016 664.15529251 C-32.83919368 595.77696077 -44.63352819 544.2808523 -88 490 C-89.12148437 488.58847656 -89.12148437 488.58847656 -90.265625 487.1484375 C-94.80239902 481.51712709 -99.53856552 476.11229355 -104.4453125 470.80078125 C-106.44002253 468.61392026 -108.38589072 466.40333038 -110.3203125 464.1640625 C-119.61430496 453.5149573 -129.80372604 443.62395604 -141 435 C-142.26295773 433.97548379 -143.52457596 432.94931504 -144.78515625 431.921875 C-179.44209123 404.0556048 -220.21546556 400.26681166 -263.12109375 397.29296875 C-305.19621692 394.36392805 -344.12433187 390.20599027 -376 360 C-377.21816406 358.86111328 -377.21816406 358.86111328 -378.4609375 357.69921875 C-385.39027614 351.0212599 -391.25162606 343.68914328 -397 336 C-397.6496875 335.13375 -398.299375 334.2675 -398.96875 333.375 C-417.23733814 308.13113276 -425.66127188 279.99355227 -421.52734375 248.7890625 C-420.88405144 245.422371 -420.05015401 242.261842 -419 239 C-418.80664062 238.38576172 -418.61328125 237.77152344 -418.4140625 237.13867188 C-402.18278027 186.69144592 -354.4828176 153.49915011 -309.55883789 130.29321289 C-273.52195965 111.95971866 -233.31014907 97.00997567 -193 92 C-193.88385716 96.48592343 -196.43718844 99.26310247 -199.3125 102.6875 C-231.12754589 141.53948875 -246.53452447 181.94773593 -246.3125 232.25 C-246.31026428 233.51577881 -246.31026428 233.51577881 -246.3079834 234.80712891 C-246.18440328 273.90271499 -237.09911798 308.47621421 -210.11328125 337.69921875 C-208.20404395 339.77785234 -206.38023356 341.90420746 -204.5625 344.0625 C-200.42932901 348.80517085 -195.71883402 352.85507823 -191 357 C-189.35310302 358.49883211 -187.70726348 359.99882698 -186.0625 361.5 C-181.81252923 365.32695657 -177.42920163 368.95348512 -172.984375 372.55078125 C-169.61238637 375.318107 -166.30334554 378.1514694 -163 381 C-158.87544389 384.55467214 -154.72791688 388.0679263 -150.5 391.5 C-142.62962761 397.89539777 -134.98400698 404.55619735 -127.3125 411.1875 C-121.74264489 415.99362565 -116.15798733 420.7121819 -110.31640625 425.1875 C-88.37333748 442.35711873 -69.90488818 461.97040314 -53.75 484.625 C-53.27908936 485.28056885 -52.80817871 485.9361377 -52.32299805 486.61157227 C-48.16504867 492.51703408 -44.57605046 498.72943098 -41 505 C-35.29317414 422.13535584 -35.29317414 422.13535584 -61.60546875 348.26953125 C-66.66211053 343.81219516 -71.49324415 343.78871057 -77.92578125 343.5703125 C-79.76288168 343.49889572 -81.59995776 343.42685032 -83.43701172 343.35424805 C-84.39734314 343.31729828 -85.35767456 343.28034851 -86.34710693 343.24227905 C-122.70672494 341.80428366 -168.30866008 339.67790911 -195 311 C-209.60631256 294.4312747 -215.09300854 273.97870698 -215.203125 252.18359375 C-215.21013931 251.25789078 -215.21715363 250.33218781 -215.22438049 249.37843323 C-215.24183468 246.39807244 -215.24823492 243.41791006 -215.25 240.4375 C-215.25067474 239.42212158 -215.25134949 238.40674316 -215.25204468 237.3605957 C-215.23651956 222.69211171 -214.95355192 208.41909638 -212 194 C-211.82839355 193.12666016 -211.65678711 192.25332031 -211.47998047 191.35351562 C-204.74228072 157.89984289 -189.64339087 129.50576379 -166 105 C-165.27554687 104.22398438 -164.55109375 103.44796875 -163.8046875 102.6484375 C-157.45676345 96.01942456 -150.3244404 90.49382346 -143 85 C-142.43651855 84.5757373 -141.87303711 84.15147461 -141.29248047 83.71435547 C-118.88995927 66.96645838 -93.78992288 53.92455369 -68.97167969 41.19140625 C-58.65231171 35.87491566 -48.56133464 30.19997804 -38.49658203 24.41943359 C-36.23836482 23.1355225 -33.96767297 21.88167385 -31.68359375 20.64453125 C-14.82321781 11.72543126 -14.82321781 11.72543126 0 0 Z M54 104 C54.65704729 108.9904306 56.08500079 113.40940648 57.75 118.125 C66.97742676 145.24551411 71.22792531 173.45257864 71.25 202.0625 C71.25101212 203.24844254 71.25101212 203.24844254 71.25204468 204.45834351 C71.21792586 229.79842062 67.76641476 254.37432291 60.47070312 278.67211914 C59.77037085 281.14107211 59.77037085 281.14107211 61 284 C79.05557609 269.73322063 92.79506491 243.66346953 96 221 C99.61536902 187.60870213 95.87112821 145.92504388 74.43359375 118.625 C68.95899714 112.08322098 62.93159023 107.33653611 55 104 C54.67 104 54.34 104 54 104 Z M-51 104 C-68.74508289 112.72571452 -78.00874653 127.82453559 -84.4453125 145.95703125 C-95.67546985 179.29053446 -97.95507911 218.91377091 -82.04785156 250.98681641 C-75.5052172 263.55684505 -67.20642855 275.13041728 -57 285 C-56.34 284.67 -55.68 284.34 -55 284 C-55.16081055 283.44352783 -55.32162109 282.88705566 -55.48730469 282.3137207 C-59.40173313 268.65928966 -62.80219819 255.04120635 -65 241 C-65.11859375 240.24734863 -65.2371875 239.49469727 -65.359375 238.71923828 C-71.46606683 197.4899811 -67.8024815 147.7178009 -50.84057617 109.37939453 C-49.69144122 106.90205371 -49.69144122 106.90205371 -51 104 Z M-1.74609375 346.328125 C-14.88043376 361.25213258 -16.10968013 382.43691908 -16.203125 401.4921875 C-16.21018463 402.4627005 -16.21724426 403.4332135 -16.22451782 404.43313599 C-16.38719611 433.50805048 -14.63613904 461.81100184 -11.53515625 490.69140625 C-11.40542923 491.90044113 -11.27570221 493.10947601 -11.14204407 494.35514832 C-11.01065536 495.5789772 -10.87926666 496.80280609 -10.74389648 498.0637207 C-10.61119354 499.29998199 -10.4784906 500.53624329 -10.34176636 501.80996704 C-10.07322819 504.30262637 -9.80315874 506.79512122 -9.53152466 509.28744507 C-7.72814687 525.85978254 -6.21709073 542.37815525 -5.66967773 559.04321289 C-5.2611689 573.44469905 -5.2611689 573.44469905 1 586 C2.98020421 585.55966008 2.98020421 585.55966008 5 584 C9.10672999 576.3757665 9.08738245 567.82983246 9.44335938 559.39453125 C10.41013801 537.15589936 12.82531316 515.05928797 15.20432854 492.93723774 C17.89034198 467.95852436 20.37005083 443.07987011 20.26074219 417.92626953 C20.24989051 414.97017424 20.26081091 412.01467262 20.2734375 409.05859375 C20.28089871 399.86539027 20.06138831 390.75583226 19.12890625 381.60546875 C19.05403992 380.86059204 18.97917358 380.11571533 18.90203857 379.3482666 C17.50879851 367.23274724 13.74464347 355.96320421 5.9375 346.5 C3.21645966 344.39338813 1.04910258 344.20202488 -1.74609375 346.328125 Z M-29 794 C-31.69633316 799.39266632 -32.11006042 805.05511297 -32.17578125 811.0078125 C-32.51809816 829.67198391 -33.29715418 848.08186274 -42 865 C-42.49113281 865.95648437 -42.98226562 866.91296875 -43.48828125 867.8984375 C-47.10859666 874.48240013 -51.43280682 880.22811352 -56.140625 886.0456543 C-64.42977587 896.38532516 -65.82631737 906.06966341 -65 919 C-63.95280707 926.03749145 -61.34600028 931.26119975 -56 936 C-49.43295887 940.69074367 -40.35717097 940.60140174 -32.625 939.375 C-26.53928296 937.89258175 -23.29297462 934.92099086 -19.8125 929.75 C-13.76850965 916.19628224 -14.57863264 900.12907024 -14.671875 885.6484375 C-14.6749433 883.53390641 -14.67681126 881.41937328 -14.67755127 879.30484009 C-14.68211877 874.90269052 -14.69640589 870.5007275 -14.71875 866.09863281 C-14.74706379 860.49667905 -14.75797014 854.89487096 -14.7624321 849.2928524 C-14.76762119 843.89052929 -14.78211979 838.48824138 -14.796875 833.0859375 C-14.79969608 831.57341967 -14.79969608 831.57341967 -14.80257416 830.03034592 C-14.8178709 823.68566941 -14.87207651 817.34345419 -15 811 C-15.02133751 809.85851879 -15.02133751 809.85851879 -15.04310608 808.69397736 C-15.092503 806.6257932 -15.17082089 804.5613112 -15.26269531 802.49462891 C-15.30726868 801.37134186 -15.35184204 800.24805481 -15.39776611 799.09072876 C-16.13868687 795.28824412 -17.59052659 793.00663226 -20 790 C-24.42711037 788.89322241 -26.308662 790.56622393 -29 794 Z M21 793 C17.05536603 804.83390192 18.81961395 819.84949831 18.796875 832.20703125 C18.79404762 833.25416479 18.79122025 834.30129833 18.78830719 835.38016319 C18.773412 840.91758848 18.7641205 846.45498834 18.75976562 851.99243164 C18.75428247 857.66049192 18.73022939 863.32831185 18.70179367 868.99629688 C18.68302888 873.40366774 18.67795447 877.81098211 18.67642975 882.21838951 C18.67343595 884.30604051 18.66552081 886.39369133 18.65224457 888.48130226 C17.72962516 913.07926738 17.72962516 913.07926738 27.51953125 934.54296875 C32.83483653 939.15991275 36.38519886 939.23614274 43.125 939.3125 C43.95515625 939.34150391 44.7853125 939.37050781 45.640625 939.40039062 C53.13876449 939.47678233 58.32180233 937.49965116 63.8125 932.375 C68.59806224 925.8271868 69.28759891 918.37197365 69.4375 910.5 C69.47097534 909.46879028 69.47097534 909.46879028 69.50512695 908.41674805 C69.46085526 898.25699228 64.58369934 890.84705316 58.25 883.3125 C44.77309657 866.52523515 37.13307426 848.15634111 36.7890625 826.32421875 C36.76070312 825.08349609 36.73234375 823.84277344 36.703125 822.56445312 C36.65128066 819.99167792 36.60693936 817.41873996 36.5703125 814.84570312 C36.36464153 806.57173125 36.08229155 798.31520817 31.125 791.375 C27.10138499 788.7714844 23.86703559 789.12950195 21 793 Z " fill="#FBC706" transform="translate(638,0)"/>
<path d="M0 0 C4.45286516 2.17970142 8.90847471 4.35364269 13.36764526 6.52041626 C15.18621273 7.40642283 17.00149595 8.29916071 18.81665039 9.19213867 C28.98412869 14.14165012 39.32576322 18.83486968 50.4375 21.1875 C51.56091797 21.42774902 51.56091797 21.42774902 52.70703125 21.67285156 C114.37915924 34.08310355 182.7934245 18.4370108 244.23568726 9.90666199 C326.18869862 -1.46806033 404.36921791 -9.87249383 486.8125 -0.35546875 C487.92171436 -0.22780687 489.03092873 -0.100145 490.17375565 0.03138542 C518.13622834 3.26446215 546.00492242 7.15282761 573.88061523 11.05297852 C599.31975298 14.61102367 624.74986006 18.11455766 650.2890625 20.8828125 C651.22063549 20.98430162 652.15220848 21.08579075 653.11201096 21.1903553 C703.43983661 26.63220749 751.9398775 29.31348751 798.04953003 5.53945923 C801.96605641 3.52412745 805.90048929 1.5444735 809.8359375 -0.43359375 C811.00965157 -1.0235891 811.00965157 -1.0235891 812.20707703 -1.62550354 C875.08516723 -33.10426805 875.08516723 -33.10426805 905 -25 C914.80006781 -21.30528964 925.3989607 -14.80221417 930 -5 C931.18560778 0.99643934 929.85860225 5.65403896 926.6875 10.7890625 C922.50372795 16.27057866 917.05592529 21.94911751 910 23 C907.13733746 23.13063738 904.71487902 22.95160708 902 22 C897.07222802 17.50072993 895.66242626 12.94979398 894.58203125 6.5078125 C893.39730711 -0.53091945 893.39730711 -0.53091945 889 -6 C885.74821633 -7.97274876 882.79414835 -9.18112355 878.94921875 -8.79296875 C872.23135206 -6.77108654 867.96452441 -1.6313936 864.7109375 4.3828125 C860.4531219 13.66423787 859.32066867 24.09994953 861.75390625 34.09765625 C863.50244873 38.64386671 865.64904324 42.40968918 869 46 C864.67658602 57.61917506 845.48326507 66.01930273 835 71 C821.86084117 76.89073682 808.11407408 80.35872625 794 83 C793.16162598 83.16516113 792.32325195 83.33032227 791.45947266 83.50048828 C759.24221683 89.5793344 723.30273959 87.54410379 691 83 C690.30293945 82.90289734 689.60587891 82.80579468 688.88769531 82.70574951 C664.98997435 79.35658858 641.45935753 74.62580638 618 69 C617.34807678 68.84464783 616.69615356 68.68929565 616.0244751 68.52923584 C575.28740821 58.80584116 535.09358995 45.93599953 495.80664062 31.46411133 C495.16543777 31.22921997 494.52423492 30.99432861 493.86360168 30.75231934 C492.18312261 30.13363059 490.50583484 29.50629199 488.82885742 28.87817383 C485.01358128 27.69378198 481.95351342 27.60464866 478 28 C476.94755625 40.62932499 484.37946697 48.76912938 492 58 C493.44840983 59.68997513 494.9113401 61.36628734 496.37817383 63.0402832 C516.02186532 85.47785807 527.60480864 106.5830024 526.21142578 137.12255859 C523.92282059 168.26978811 507.03327675 196.60194252 484 217 C462.34535252 235.42386178 435.66592059 242.39050524 407.71777344 242.31567383 C405.26712127 242.31252202 402.81769092 242.33603736 400.3671875 242.36132812 C373.06915159 242.47113078 347.11884079 234.69494153 326 217 C324.48792969 215.73349609 324.48792969 215.73349609 322.9453125 214.44140625 C300.4232158 194.97799823 285.92251689 166.02455933 283.25390625 136.43359375 C281.01000817 103.92953959 296.89197808 82.14610134 317.14746094 58.63818359 C326.09751685 48.19792861 326.09751685 48.19792861 332 36 C331.91500179 31.65814932 331.91500179 31.65814932 330 28 C322.8649077 28.38901553 316.80452987 30.18987344 310.1171875 32.61328125 C309.08172791 32.97894699 308.04626831 33.34461273 306.97943115 33.72135925 C304.7611347 34.50475211 302.54416673 35.29191529 300.32843018 36.08251953 C294.46269857 38.17167001 288.5834442 40.22186291 282.703125 42.26953125 C281.5276712 42.67893951 280.35221741 43.08834778 279.1411438 43.51016235 C227.18200401 61.53371675 173.49599876 75.39689741 119 83 C117.73043457 83.17934082 116.46086914 83.35868164 115.15283203 83.54345703 C97.80487444 85.88112508 80.54384427 86.29845243 63.0625 86.375 C62.04458374 86.3830365 61.02666748 86.391073 59.97790527 86.39935303 C18.61475161 86.64748182 -23.92934102 78.70977617 -56 51 C-56.64195312 50.48179688 -57.28390625 49.96359375 -57.9453125 49.4296875 C-59 48 -59 48 -58.83984375 46.05078125 C-57.95097534 43.88028861 -56.88896946 42.12013058 -55.5625 40.1875 C-50.48533264 32.19022771 -49.84132459 23.59179205 -51.46484375 14.35546875 C-53.5106314 6.66863349 -57.10188351 -1.16425482 -63.5625 -6.0625 C-67.56972615 -8.41124364 -67.56972615 -8.41124364 -72 -9 C-77.15669109 -7.37157123 -80.11499089 -5.59464414 -83 -1 C-84.51167836 2.61123164 -85.20822361 6.16603578 -85.875 10 C-86.73037448 14.43725509 -88.02362681 17.49838449 -91 21 C-94.77053279 23.36054364 -97.47547551 23.14280181 -101.7578125 22.5390625 C-108.74405097 20.85944419 -113.84225522 14.90915497 -117.75 9.1875 C-120.24865223 4.96755401 -121.07828058 1.9316765 -121 -3 C-116.86595809 -13.06549335 -108.34382277 -19.23857602 -98.640625 -23.5859375 C-66.10042057 -36.22494394 -28.38955111 -13.91270639 0 0 Z M362 54 C358.38656549 68.92692589 357.34147613 82.68295227 364.42578125 96.8515625 C370.25574186 105.86013212 377.70076521 112.42736716 388.04125977 115.38476562 C393.62254188 116.54532598 399.19514412 116.4711267 404.875 116.4375 C406.65970703 116.4674707 406.65970703 116.4674707 408.48046875 116.49804688 C420.59828604 116.49142512 430.09288231 114.03421271 438.8125 105.3984375 C447.45195436 95.9258929 451.89493595 83.56070378 451.33984375 70.59375 C450.60524335 64.98714465 449.32929918 59.4912716 448 54 C446.87881743 56.20064672 445.81715228 58.4088595 444.80859375 60.6640625 C439.95268888 71.1506035 434.04729432 79.2527946 423.359375 84.16015625 C417.41357929 86.27662327 411.54951003 86.21657999 405.3125 86.25 C404.36955078 86.270625 403.42660156 86.29125 402.45507812 86.3125 C391.35741967 86.37351805 383.07791469 83.70184789 375 76 C368.7678959 69.57980423 365.81941863 62.40628505 363 54 C362.67 54 362.34 54 362 54 Z M330 83 C320.90217189 101.19565621 318.49711697 123.02806568 324.671875 142.57421875 C328.43742314 152.28711792 333.02229425 161.16912499 340 169 C340.56976562 169.66257812 341.13953125 170.32515625 341.7265625 171.0078125 C355.19372704 185.62111871 375.37870834 194.08805454 394.99023438 195.1640625 C412.93884502 195.81241689 429.65698828 195.17150586 446 187 C446.98484375 186.50757813 447.9696875 186.01515625 448.984375 185.5078125 C464.79143774 176.94906609 477.8461767 163.01351146 484 146 C484.5878125 144.39125 484.5878125 144.39125 485.1875 142.75 C491.33179625 123.29306189 489.23776898 101.14561763 480 83 C479.67 83 479.34 83 479 83 C478.85304688 84.23492188 478.70609375 85.46984375 478.5546875 86.7421875 C475.80150508 108.17098193 470.32608526 128.65688495 453 143 C439.35177206 152.86231173 424.07287928 155.19518406 407.64453125 155.24023438 C405.53343879 155.24984773 403.42336085 155.28087662 401.3125 155.3125 C384.84512723 155.44138233 368.6546362 152.43041462 355.83984375 141.453125 C353.9570931 139.79689844 353.9570931 139.79689844 351 139 C350.28115823 137.69405638 349.62242573 136.35455101 349 135 C347.91248283 133.48788544 346.80663223 131.98886772 345.6875 130.5 C335.89525844 116.5836401 332.79022628 99.6067043 331 83 C330.67 83 330.34 83 330 83 Z " fill="#FBC706" transform="translate(235,1157)"/>
<path d="M0 0 C1.22600418 -0.00855011 1.22600418 -0.00855011 2.47677612 -0.01727295 C4.19609309 -0.02665167 5.91542746 -0.03322825 7.63476562 -0.03710938 C10.21517696 -0.04677384 12.79477609 -0.07784878 15.375 -0.109375 C30.01433544 -0.20338304 46.10451532 0.28955918 57.6796875 10.453125 C59.69441079 14.30737825 60.59087553 17.84519512 60.1171875 22.203125 C57.49427751 25.8002587 55.44915411 27.46148293 51.1171875 28.203125 C49.06785624 28.27061335 47.01633206 28.27993248 44.96606445 28.25317383 C43.71988846 28.24018753 42.47371246 28.22720123 41.18977356 28.21382141 C40.52527506 28.20483637 39.86077656 28.19585133 39.17614174 28.18659401 C37.07504671 28.15976783 34.97406033 28.14200907 32.87284851 28.12712097 C26.89867732 28.08460754 20.92471104 28.03781594 14.95092773 27.95629883 C-8.27725407 27.43146621 -8.27725407 27.43146621 -30.8828125 32.203125 C-32.03160889 32.58146484 -33.18040527 32.95980469 -34.36401367 33.34960938 C-69.69713475 45.53403544 -94.37923596 72.96898816 -110.67480469 105.65991211 C-115.75825492 116.19407384 -121.62931774 129.36570063 -119.8828125 141.203125 C-116.8199721 147.57383302 -112.11096186 151.05926233 -105.59765625 153.3671875 C-94.17007579 156.76490661 -83.46624551 157.43939508 -71.6328125 157.453125 C-70.48279251 157.45563263 -70.48279251 157.45563263 -69.30953979 157.45819092 C-52.50143197 157.4603164 -35.72875014 156.67073241 -18.9453125 155.828125 C-17.66901978 155.76500122 -16.39272705 155.70187744 -15.07775879 155.63684082 C-2.59983089 155.01104016 9.86643081 154.31261552 22.3125 153.2109375 C23.59404213 153.09934799 23.59404213 153.09934799 24.901474 152.98550415 C55.16906965 150.13556287 79.51383092 137.82464271 99.1171875 114.203125 C101.30620747 111.50593968 103.44402009 108.77448326 105.5546875 106.015625 C106.050896 105.37488037 106.54710449 104.73413574 107.05834961 104.07397461 C112.48616342 96.80939676 115.52484328 89.56564893 116.6171875 80.578125 C116.73191406 79.72782715 116.84664062 78.8775293 116.96484375 78.00146484 C117.80577115 71.48317099 118.44954696 64.94690492 119.0859375 58.40625 C119.21361511 57.1083403 119.21361511 57.1083403 119.34387207 55.78421021 C119.77439739 51.39834735 120.19143124 47.01198805 120.58398438 42.62255859 C120.74052407 40.97490052 120.89741077 39.32727538 121.0546875 37.6796875 C121.14840637 36.55412445 121.14840637 36.55412445 121.24401855 35.40582275 C121.80040502 29.76081176 122.80904581 24.23972061 127.2421875 20.328125 C133.84608619 17.74399073 141.23387928 17.57286779 148.1171875 19.203125 C151.5546875 20.765625 151.5546875 20.765625 154.1171875 23.203125 C156.08232865 29.46692959 156.71054119 35.72871749 157.30078125 42.24609375 C157.50834964 44.39389122 157.71603566 46.54167732 157.92382812 48.68945312 C158.24020125 52.03498265 158.55377031 55.38074842 158.86450195 58.72680664 C161.18626043 83.54415077 165.58034425 98.30738583 182.1171875 117.203125 C182.74753906 117.95722656 183.37789062 118.71132812 184.02734375 119.48828125 C202.05766113 140.92858773 226.74795658 150.62495397 254.1171875 153.203125 C263.00318852 153.87817583 271.90550494 154.30662921 280.8046875 154.765625 C283.16864849 154.89204263 285.53258107 155.01899259 287.89648438 155.14648438 C293.59785241 155.45255181 299.29969283 155.74843435 305.00177002 156.04095459 C307.87505337 156.19052091 310.74785012 156.34700953 313.62060547 156.50634766 C323.93326053 157.06909976 334.2265006 157.41715001 344.55517578 157.44335938 C346.10372493 157.44990024 347.65225948 157.46363862 349.20068359 157.484375 C364.54851724 157.68982603 383.39136553 157.58406985 395.1171875 146.203125 C397.80923598 142.86127172 398.65455909 140.05026798 398.4609375 135.7421875 C394.80199068 108.71587575 378.42134947 83.59720204 360.1171875 64.203125 C359.43269531 63.45417969 358.74820313 62.70523437 358.04296875 61.93359375 C341.12358393 44.07598056 313.9280198 28.88800318 288.93041992 28.10305786 C287.2188269 28.1199617 287.2188269 28.1199617 285.47265625 28.13720703 C284.17110596 28.14696564 282.86955566 28.15672424 281.52856445 28.16677856 C280.49634262 28.17782309 280.49634262 28.17782309 279.44326782 28.18909073 C277.27361794 28.21125489 275.10405716 28.22524149 272.93432617 28.23678589 C266.76891989 28.27024971 260.60366184 28.31201258 254.43847656 28.37451172 C250.65793228 28.41225447 246.87753703 28.43520908 243.09683228 28.44881821 C241.66154817 28.45684473 240.22628348 28.47041424 238.79110718 28.48974991 C236.78144715 28.51636288 234.7715479 28.52249799 232.76171875 28.52783203 C231.62065674 28.53751007 230.47959473 28.54718811 229.30395508 28.55715942 C224.71314388 28.04714256 221.38038183 26.46631933 218.1171875 23.203125 C217.66091199 18.64036995 217.65891248 16.17695942 219.6171875 12.015625 C226.83376449 3.89697589 236.66279392 1.49266536 247.1171875 0.203125 C249.91953434 0.05000433 252.71727848 0.016581 255.5234375 0 C256.71394211 -0.01052147 256.71394211 -0.01052147 257.92849731 -0.02125549 C260.49145195 -0.03873466 263.05417536 -0.04511251 265.6171875 -0.046875 C266.93091339 -0.04788712 266.93091339 -0.04788712 268.2711792 -0.04891968 C282.08136772 -0.03201595 295.53056707 0.5220106 309.1171875 3.203125 C309.9407373 3.36409668 310.76428711 3.52506836 311.61279297 3.69091797 C367.07213751 14.96472732 420.74827621 37.98422265 465.1171875 73.203125 C466.03886719 73.93015625 466.96054687 74.6571875 467.91015625 75.40625 C484.12568204 88.41610907 500.20177426 103.17110579 513.03515625 119.5625 C514.93947358 121.97773174 516.92005293 124.30575409 518.93823242 126.62597656 C524.12759305 132.61548338 528.95662136 138.84013063 533.6796875 145.203125 C534.28772217 146.01652344 534.89575684 146.82992188 535.5222168 147.66796875 C536.37553589 148.83005859 536.37553589 148.83005859 537.24609375 150.015625 C538.00515015 151.04623047 538.00515015 151.04623047 538.77954102 152.09765625 C540.23163345 154.38326406 541.18684033 156.66536157 542.1171875 159.203125 C512.49520924 173.63457827 481.86197234 182.66744676 449.1171875 186.203125 C448.27397949 186.29883789 447.43077148 186.39455078 446.56201172 186.49316406 C410.47374852 190.07949547 373.68956881 186.68413012 337.94140625 181.5859375 C336.6006091 181.39522171 336.6006091 181.39522171 335.23272514 181.20065308 C312.1521181 177.89812368 289.21776933 173.78857294 266.26934814 169.68237305 C244.20762813 165.73638187 222.15202504 161.91991387 199.953125 158.8203125 C199.08512331 158.69826447 198.21712162 158.57621643 197.32281685 158.45046997 C127.72073909 148.72783569 61.96061635 160.68871755 -6.57778835 172.90942764 C-25.24339925 176.23618289 -43.89885029 179.49504654 -62.68359375 182.08203125 C-63.75651641 182.22997572 -63.75651641 182.22997572 -64.85111427 182.38090897 C-132.12414633 191.58137659 -202.22094056 191.21419249 -263.8828125 159.203125 C-262.4079579 154.95207351 -260.19634338 151.50206236 -257.5703125 147.890625 C-257.13444824 147.28669922 -256.69858398 146.68277344 -256.24951172 146.06054688 C-250.75445955 138.53877319 -244.84837746 131.35360654 -238.8828125 124.203125 C-238.36396484 123.57841309 -237.84511719 122.95370117 -237.31054688 122.31005859 C-230.5410689 114.18367446 -223.46888294 106.57347779 -215.8828125 99.203125 C-213.35980185 96.69590785 -210.85513306 94.1746695 -208.375 91.625 C-202.21661282 85.3379301 -195.85200985 79.59413512 -188.8828125 74.203125 C-188.19074707 73.66171875 -187.49868164 73.1203125 -186.78564453 72.5625 C-139.31917849 35.56258578 -78.00751743 8.56228442 -17.8828125 1.203125 C-17.20337082 1.11692902 -16.52392914 1.03073303 -15.82389832 0.94192505 C-10.53429774 0.30562912 -5.3254684 0.02979658 0 0 Z M-129.8828125 52.890625 C-130.58414307 53.20241699 -131.28547363 53.51420898 -132.00805664 53.83544922 C-146.91731252 60.73075486 -160.122786 70.55983608 -172.95751953 80.6953125 C-174.75907968 82.1062224 -176.5778935 83.48868255 -178.41015625 84.859375 C-189.9760644 93.52449242 -200.09796208 102.65872119 -208.8828125 114.203125 C-209.98496094 115.61658203 -209.98496094 115.61658203 -211.109375 117.05859375 C-216.80371353 124.50511959 -216.80371353 124.50511959 -219.8828125 133.203125 C-218.79195498 137.41666626 -216.80153004 139.63936651 -213.1328125 141.890625 C-207.91261175 142.39256738 -203.97176276 139.91078439 -199.97412109 136.64282227 C-198.07298013 134.85813439 -196.25054499 133.0222017 -194.4453125 131.140625 C-193.79062988 130.47160156 -193.13594727 129.80257813 -192.46142578 129.11328125 C-188.12191772 124.62880076 -184.06262039 119.98989863 -180.1953125 115.08984375 C-177.30664666 111.48389096 -174.29115112 108.00004013 -171.2578125 104.515625 C-170.73106934 103.90976563 -170.20432617 103.30390625 -169.66162109 102.6796875 C-168.63814807 101.50417566 -167.61315505 100.32998501 -166.58644104 99.15730286 C-165.50310688 97.91464486 -164.42508186 96.66732313 -163.35426331 95.41386414 C-158.76073233 90.07208025 -153.88308485 85.07330682 -148.88671875 80.109375 C-148.05317368 79.27724487 -147.2196286 78.44511475 -146.36082458 77.58776855 C-143.72467988 74.95717565 -141.08506145 72.33010059 -138.4453125 69.703125 C-136.64625271 67.90908645 -134.8474223 66.11481785 -133.04882812 64.3203125 C-128.66280438 59.94525375 -124.27393108 55.57306988 -119.8828125 51.203125 C-123.90500098 49.86239551 -126.1973799 51.24739296 -129.8828125 52.890625 Z M398.1171875 50.203125 C402.00307713 54.85897687 406.04288851 59.25800711 410.36328125 63.51171875 C410.93748306 64.08213394 411.51168488 64.65254913 412.10328674 65.24024963 C414.52604196 67.64687715 416.95477288 70.04743929 419.38305664 72.44848633 C431.55235222 84.49332135 431.55235222 84.49332135 436.79418945 90.66186523 C438.424168 92.56074964 440.17759894 94.29378208 441.9921875 96.015625 C445.85289274 99.82455833 449.23265136 103.91730286 452.62890625 108.140625 C456.89207142 113.38759752 461.31550367 118.49604056 465.74072266 123.60644531 C466.96272878 125.02395508 468.17178117 126.45260904 469.37890625 127.8828125 C474.88989968 134.31410935 481.22469328 141.37974591 490.1171875 142.203125 C494.20084017 139.85880588 495.59086827 138.4312032 497.4296875 134.140625 C496.53225098 122.83292481 486.51264603 113.25897597 479.1171875 105.203125 C478.60833008 104.64367188 478.09947266 104.08421875 477.57519531 103.5078125 C467.84133045 92.93513349 456.76298542 84.55756968 445.1171875 76.203125 C443.59461734 75.09304396 442.07246429 73.98239053 440.55078125 72.87109375 C420.80870581 57.54965539 420.80870581 57.54965539 398.1171875 50.203125 Z M-139.5078125 88.515625 C-146.26567596 95.30015518 -152.20626925 102.50438131 -157.8828125 110.203125 C-158.30900879 110.76854004 -158.73520508 111.33395508 -159.17431641 111.91650391 C-164.22521756 118.61855095 -168.8455905 125.51160608 -173.0703125 132.765625 C-173.66900146 133.76601807 -173.66900146 133.76601807 -174.27978516 134.78662109 C-175.90146841 137.66092493 -176.89574336 139.70834949 -176.80859375 143.04296875 C-175.97200779 145.53818821 -175.97200779 145.53818821 -172.8828125 147.203125 C-168.94183287 147.64619372 -165.25264342 147.08584876 -161.89794922 144.92407227 C-156.52431233 140.2395936 -152.87301825 135.15395986 -149.1953125 129.078125 C-148.59936279 128.11890137 -148.00341309 127.15967773 -147.3894043 126.17138672 C-145.54056832 123.1899283 -143.70999496 120.1978928 -141.8828125 117.203125 C-131.65946479 100.53814305 -121.35543357 84.25330858 -109.09765625 68.99609375 C-106.83897387 66.22659723 -106.83897387 66.22659723 -104.8828125 63.203125 C-116.79310068 63.203125 -131.56402678 80.69344835 -139.5078125 88.515625 Z M383.1171875 63.203125 C383.8803125 64.21375 384.6434375 65.224375 385.4296875 66.265625 C386.65897086 67.91137118 387.88811761 69.55721939 389.1171875 71.203125 C390.30054688 72.77126953 390.30054688 72.77126953 391.5078125 74.37109375 C400.79539118 86.77075888 409.18006957 99.72811019 417.25390625 112.9453125 C417.60617783 113.52131699 417.9584494 114.09732147 418.32139587 114.69078064 C420.04779294 117.51619145 421.76611043 120.34581301 423.47338867 123.18286133 C431.67767049 137.1967801 431.67767049 137.1967801 444.1171875 147.203125 C449.26198328 147.73272208 449.26198328 147.73272208 453.5546875 145.203125 C454.328125 144.213125 454.328125 144.213125 455.1171875 143.203125 C449.25936991 121.52919991 430.10373356 102.15506207 415.1171875 86.203125 C414.52421875 85.55601563 413.93125 84.90890625 413.3203125 84.2421875 C405.46893105 75.96325557 395.33504889 68.30169275 385.1171875 63.203125 C384.4571875 63.203125 383.7971875 63.203125 383.1171875 63.203125 Z " fill="#FBC706" transform="translate(500.8828125,981.796875)"/>
<path d="M0 0 C18.71482951 6.56541939 37.2185447 27.85241461 49 43 C49.43070801 43.54897949 49.86141602 44.09795898 50.30517578 44.66357422 C74.30472567 75.46083445 89.12554545 114.13201131 84.53515625 153.5625 C81.76913171 172.96208021 73.66225147 189.91926516 60 204 C59.45988281 204.61359375 58.91976563 205.2271875 58.36328125 205.859375 C40.53442902 225.43967619 10.35589672 232.77865647 -15.08349609 234.16845703 C-59.54855639 235.80114245 -104.91264995 218.43972077 -137.671875 188.26953125 C-147.39900684 178.78720977 -147.39900684 178.78720977 -150 173 C-147.07181889 172.02393963 -144.89015465 171.79495044 -141.828125 171.640625 C-101.30687976 169.28274137 -65.40239513 157.42722373 -37.3046875 127.08984375 C-6.96134803 91.87486721 0.15784405 44.96893834 0 0 Z " fill="#FBC706" transform="translate(1093,249)"/>
<path d="M0 0 C-0.00797607 0.77891602 -0.01595215 1.55783203 -0.02416992 2.36035156 C-0.26596593 44.55218419 6.63551871 90.83632231 35 124 C36.03060547 125.21236328 36.03060547 125.21236328 37.08203125 126.44921875 C66.95308359 160.60998439 106.70118313 169.07978689 150 173 C128.85901823 206.2472377 86.94709248 223.8912697 49.8671875 232.23828125 C24.81954578 237.17190765 -2.08325837 234.6875948 -26 226 C-27.61841797 225.4121875 -27.61841797 225.4121875 -29.26953125 224.8125 C-52.09505356 215.9049791 -68.28213668 199.07667434 -78.17919922 176.93554688 C-90.64999135 147.52792047 -85.77409372 114.19125385 -74.18359375 85.40234375 C-67.56527316 69.60256739 -58.94382922 55.17116015 -48 42 C-47.50677246 41.40525879 -47.01354492 40.81051758 -46.50537109 40.19775391 C-12.97743555 0 -12.97743555 0 0 0 Z " fill="#FBC706" transform="translate(187,249)"/>
<path d="M0 0 C2 1 2 1 2.73022461 2.84399414 C14.2143437 44.55474851 17.59955854 94.27207635 -3.9296875 133.54296875 C-6.78906277 138.46416071 -10.15631233 142.80894567 -14 147 C-14.62519531 147.70511719 -15.25039062 148.41023437 -15.89453125 149.13671875 C-26.14756334 160.09973677 -40.94380928 167.64156776 -56.08203125 168.203125 C-82.41905993 168.64487134 -103.75020669 161.42148895 -123 143 C-123.61488281 142.44828125 -124.22976563 141.8965625 -124.86328125 141.328125 C-148.28321212 119.57720069 -159.02005828 83.13692485 -166 53 C-162.58879042 53.63045207 -159.34408743 54.46094265 -156.04296875 55.5234375 C-144.75815895 59.09581623 -133.72830201 62.29332043 -122 64 C-121.12988281 64.13019531 -120.25976562 64.26039063 -119.36328125 64.39453125 C-89.03375599 68.15438975 -59.19349169 60.31786129 -35.0625 41.73828125 C-21.56811155 30.93910354 -11.82399348 18.26899372 -2.71484375 3.703125 C-1 1 -1 1 0 0 Z " fill="#FBC706" transform="translate(1267,580)"/>
<path d="M0 0 C2.92711342 2.7437737 5.01687362 5.43248809 7.0625 8.875 C22.9211757 34.25565834 46.46122735 54.71240417 76 62 C102.65043134 68.0452865 127.91814945 64.57785898 153.74023438 56.68261719 C156.74940577 55.77362375 159.77725901 54.94218027 162.8125 54.125 C163.64394531 53.90070312 164.47539062 53.67640625 165.33203125 53.4453125 C165.88246094 53.29835938 166.43289062 53.15140625 167 53 C158.85870829 85.82778913 148.23271906 118.46531559 124 143 C123.41992188 143.65226563 122.83984375 144.30453125 122.2421875 144.9765625 C109.12479719 159.41228349 87.80927765 167.39464596 68.6640625 168.3515625 C51.16848017 168.81673769 35.10672217 165.45252313 21.625 153.625 C20.06177476 152.10519769 18.51892991 150.56407293 17 149 C16.30390625 148.31292969 15.6078125 147.62585938 14.890625 146.91796875 C-0.16725048 131.1889089 -6.22677959 109.07647514 -9 88 C-9.0928125 87.34974854 -9.185625 86.69949707 -9.28125 86.02954102 C-12.65838705 60.04669287 -12.49770643 23.68402684 0 0 Z " fill="#FBC706" transform="translate(12,580)"/>
<path d="M0 0 C-3.95742984 11.00598646 -13.05213768 19.67812063 -21 28 C-21.6909375 28.7321875 -22.381875 29.464375 -23.09375 30.21875 C-27.85994103 35.14120959 -33.01404732 39.49311941 -38.39355469 43.73095703 C-39.46896638 44.58049958 -40.53992196 45.4357121 -41.60644531 46.29638672 C-55.41205532 57.4218014 -70.26044384 67.10503709 -84.98788452 76.94865417 C-88.81232234 79.50987271 -92.60118372 82.11300405 -96.36210632 84.76649475 C-101.54736197 88.41776521 -106.64703949 91.71824121 -112.4375 94.3125 C-113.15502441 94.63951904 -113.87254883 94.96653809 -114.61181641 95.3034668 C-139.4899532 106.3374577 -170.10138715 109.16583726 -195.9375 99.6875 C-214.15907398 91.99955632 -224.95315059 82.11790629 -233 64 C-234.6883592 59.65046511 -235.22833287 55.68082391 -235 51 C-232.09970035 50.18214483 -229.43736638 49.83860484 -226.42871094 49.73461914 C-225.52546082 49.70110855 -224.62221069 49.66759796 -223.69158936 49.6330719 C-222.71570862 49.60075974 -221.73982788 49.56844757 -220.734375 49.53515625 C-218.62369616 49.45642728 -216.51301914 49.37764949 -214.40234375 49.29882812 C-211.11024689 49.18095934 -207.81809715 49.06486685 -204.52587891 48.95043945 C-177.66271573 48.00380146 -151.71204645 46.58813457 -125.85546875 38.9375 C-123.78505802 38.32963183 -121.71423995 37.72316488 -119.6434021 37.11675358 C-118.21973353 36.6997686 -116.79619116 36.28235256 -115.37277222 35.86451626 C-108.70827443 33.90933108 -102.03242076 31.99484761 -95.35452843 30.0860157 C-91.47130344 28.97469728 -87.59000102 27.85668267 -83.70854473 26.73920536 C-80.46483336 25.8057305 -77.220363 24.87507915 -73.97412109 23.95043945 C-50.84430021 17.35832864 -27.71141263 10.39709573 -5.5546875 0.9609375 C-3 0 -3 0 0 0 Z " fill="#FBC706" transform="translate(515,1220)"/>
<path d="M0 0 C3.88681649 0.66577448 7.38098329 1.79266489 11.06640625 3.1875 C12.85316772 3.85700684 12.85316772 3.85700684 14.67602539 4.54003906 C15.30719269 4.77758911 15.93835999 5.01513916 16.58865356 5.2598877 C46.01141861 16.29223046 76.05362112 24.80442253 106.29806519 33.26057434 C114.90775384 35.67480199 123.49231172 38.170607 132.06085205 40.7270813 C158.47501496 48.53325026 186.44274314 48.30036062 213.76000977 49.30297852 C215.3075872 49.36171143 215.3075872 49.36171143 216.88642883 49.42163086 C218.84209976 49.49553359 220.79790052 49.56610099 222.75382996 49.6328125 C226.93330392 49.79223354 230.92303468 49.97223391 235 51 C234.15163655 65.42217873 226.71453473 78.2008621 216.421875 88.0546875 C197.43052376 103.30903092 172.74353476 106.98697925 149.12109375 104.53125 C128.43417511 102.02514317 108.22720473 95.05754339 91.92138672 81.84594727 C87.9033466 78.60731603 83.724869 75.85905154 79.3125 73.1875 C70.95304467 68.09421484 63.06679504 62.44130878 55.20068359 56.62158203 C53.08811352 55.06492678 50.96216082 53.52859381 48.83203125 51.99609375 C39.84367374 45.47240825 31.64639074 38.38750486 23.69140625 30.64013672 C22.13293833 29.12890873 20.55517522 27.64190686 18.96875 26.16015625 C13.89192126 21.30436921 9.47339459 16.25024862 5.375 10.5625 C4.94856201 9.97082031 4.52212402 9.37914062 4.08276367 8.76953125 C2.1067773 5.92795612 0.4940407 3.46680285 0 0 Z " fill="#FBC706" transform="translate(765,1220)"/>
<path d="M0 0 C0.66 0 1.32 0 2 0 C3.54076588 1.8649811 4.96753238 3.72578451 6.375 5.6875 C17.23448233 20.56026928 28.33692833 24.98730127 46.00390625 28.6171875 C67.57627395 31.37350045 87.01385744 25.45223208 107 18 C109.24949421 17.18610072 111.49938614 16.37329807 113.75 15.5625 C115.16716293 15.0430185 116.58407721 14.52285222 118 14 C114.41090209 35.87640631 103.48606515 54.45186152 89 71 C88.31679687 71.82757812 87.63359375 72.65515625 86.9296875 73.5078125 C76.05576775 86.30774017 61.58024238 97.14747897 45 101 C42.24282285 101.21020063 39.6266209 101.33462422 36.875 101.3125 C36.13362793 101.30686035 35.39225586 101.3012207 34.62841797 101.29541016 C20.5990211 100.9904889 8.14330451 96.6351674 -2.22265625 86.96875 C-12.33588032 75.76640949 -15.35468103 61.53074584 -15.21484375 46.87890625 C-14.27408975 29.89402043 -8.4331151 14.63036107 0 0 Z " fill="#FBC706" transform="translate(1127,874)"/>
<path d="M0 0 C0.66 0 1.32 0 2 0 C13.54282932 21.53897679 21.105544 44.31206517 14.3125 68.8125 C10.4966279 80.16333693 3.05789475 88.61710526 -7 95 C-10.2562822 96.6123849 -13.55010568 97.86638544 -17 99 C-17.66128906 99.226875 -18.32257813 99.45375 -19.00390625 99.6875 C-30.5728442 102.94763124 -44.28029897 102.35146264 -55 97 C-55.87527344 96.59910156 -56.75054687 96.19820312 -57.65234375 95.78515625 C-65.78237369 91.76096639 -72.34046491 86.06072131 -79 80 C-79.7425 79.3296875 -80.485 78.659375 -81.25 77.96875 C-96.50964599 63.44747397 -113.29908055 39.41714998 -116 18 C-115.69727099 16.65938669 -115.36781445 15.32423616 -115 14 C-114.40276123 14.24645264 -113.80552246 14.49290527 -113.19018555 14.74682617 C-82.61267646 27.27427874 -54.86331588 34.28859825 -22.734375 22.8359375 C-13.19438988 18.53416507 -7.42107531 10.56556062 -1.6640625 2.125 C-1.11492187 1.42375 -0.56578125 0.7225 0 0 Z " fill="#FBC706" transform="translate(151,874)"/>
<path d="M0 0 C3.5435341 1.70084 6.40112768 3.75325425 9.5 6.1875 C10.66594847 7.09337306 11.83266603 7.99825678 13 8.90234375 C13.63808594 9.39718262 14.27617188 9.89202148 14.93359375 10.40185547 C35.38924365 26.2221159 56.34932673 40.50236261 79 53 C79.94552734 53.52352051 80.89105469 54.04704102 81.86523438 54.58642578 C87.56731024 57.74176642 93.27835651 60.88028667 99 64 C93.18789 80.30899846 81.30422761 89.42899453 66.18359375 96.93359375 C42.80884161 107.98985151 12.13651958 114.59096239 -13 106 C-14.67895669 105.02077469 -16.34754424 104.02331214 -18 103 C-17.65743164 101.98389648 -17.31486328 100.96779297 -16.96191406 99.92089844 C-5.12182801 64.74296658 -5.12182801 64.74296658 -0.68359375 28.02734375 C-0.66281265 27.21882462 -0.64203156 26.41030548 -0.62062073 25.57728577 C-0.55598384 23.03076486 -0.49664591 20.48415373 -0.4375 17.9375 C-0.3942328 16.19595475 -0.35061612 14.45441814 -0.30664062 12.71289062 C-0.20039252 8.47534948 -0.09889177 4.23771894 0 0 Z " fill="#FBC706" transform="translate(778,1270)"/>
<path d="M0 0 C-0.01047363 0.74870361 -0.02094727 1.49740723 -0.03173828 2.26879883 C-0.42675661 34.91781388 2.77748587 66.70209579 15.86328125 96.9609375 C17 100 17 100 17 104 C-8.40535794 114.35033101 -37.31630218 108.94416774 -62 99 C-76.12272065 92.94822959 -89.89100062 84.19242683 -97 70 C-97.70015139 68.0114748 -98.37396146 66.01308723 -99 64 C-98.44876465 63.70456299 -97.8975293 63.40912598 -97.32958984 63.10473633 C-78.81385072 53.15600946 -60.23214663 43.08202916 -43 31 C-41.94554687 30.26910156 -40.89109375 29.53820313 -39.8046875 28.78515625 C-31.43239455 22.92780795 -23.36260692 16.69961352 -15.32421875 10.39453125 C-14.62216309 9.84490723 -13.92010742 9.2952832 -13.19677734 8.72900391 C-11.63402371 7.4990171 -10.0777138 6.26082411 -8.52587891 5.01708984 C-7.31617432 4.05536865 -7.31617432 4.05536865 -6.08203125 3.07421875 C-5.34831299 2.48600342 -4.61459473 1.89778809 -3.85864258 1.29174805 C-2 0 -2 0 0 0 Z " fill="#FBC706" transform="translate(502,1270)"/>
<path d="M0 0 C2.41284981 2.22236167 3.9618278 4.49677864 5.625 7.3125 C8.94640698 12.36431901 12.7420674 15.12883412 18 18 C18.67675781 18.37898437 19.35351562 18.75796875 20.05078125 19.1484375 C38.24591628 28.26313791 61.02953963 26.51679775 80 21 C83.93115641 19.6154964 87.68210145 17.96050707 91.4453125 16.171875 C94 15 94 15 96 15 C94.50714664 20.5499019 91.80415834 24.7946645 88.625 29.5 C87.82860107 30.68323853 87.82860107 30.68323853 87.01611328 31.89038086 C74.31445154 50.43001533 58.71837573 67.24381459 36.359375 73.37890625 C25.90506247 75.31173845 14.88326694 75.13668648 5.6015625 69.55859375 C-2.14961182 64.00916496 -6.85809579 57.30088135 -9 48 C-10.92039903 31.41093644 -6.92304453 15.04505209 0 0 Z " fill="#FBC706" transform="translate(1096,975)"/>
<path d="M0 0 C0.66 0 1.32 0 2 0 C3.13538643 3.2881735 4.25632004 6.58110901 5.375 9.875 C5.69210938 10.7928125 6.00921875 11.710625 6.3359375 12.65625 C11.00555255 26.47052784 14.1887469 41.75231621 8.1875 55.671875 C3.75340524 64.36503447 -2.37612336 69.59764046 -11.6875 72.875 C-24.78709624 76.25619408 -38.57436003 73.92700661 -50.25 67.25 C-69.86998786 54.43760204 -84.91185755 36.06950585 -95 15 C-91.16635063 15.62618592 -87.97504782 16.78671322 -84.4375 18.375 C-63.85447045 27.13481331 -40.69881314 27.57755343 -19.75 19.875 C-10.47826425 15.74734224 -3.7692167 9.42304176 0 0 Z " fill="#FBC706" transform="translate(182,975)"/>
<path d="M0 0 C0.66 0 1.32 0 2 0 C3.19140625 1.72265625 3.19140625 1.72265625 4.5625 4.0625 C11.16573144 14.17369814 21.13364095 18.94606646 32.71484375 21.62890625 C37.43967639 22.16262694 42.12477374 22.10433804 46.875 22.0625 C47.84953125 22.05798828 48.8240625 22.05347656 49.828125 22.04882812 C52.21881434 22.03710906 54.6093744 22.02070219 57 22 C56.02709089 29.78327287 52.33379011 35.45693082 46.1875 40.3125 C37.12939746 46.54102384 27.78177492 49.13931768 16.875 49.3125 C16.1936499 49.33022461 15.5122998 49.34794922 14.81030273 49.36621094 C9.29998432 49.35816178 5.3900966 48.05683694 1.20703125 44.45703125 C-5.15559348 36.95376791 -6.56463112 30.52854247 -6.36328125 20.68359375 C-5.6465792 13.4163891 -3.42457443 6.44807257 0 0 Z " fill="#FBC706" transform="translate(1069,1054)"/>
<path d="M0 0 C0.66 0 1.32 0 2 0 C7.29577944 12.08260357 10.24120474 24.08469291 6 37 C2.68450596 43.05935118 -1.43081606 46.8379901 -8 49 C-21.77937524 50.39743664 -34.82252588 47.48435083 -46 39 C-50.00478244 35.24127411 -52.94950079 31.12624801 -55 26 C-55 24.68 -55 23.36 -55 22 C-54.42668945 22.01571045 -53.85337891 22.0314209 -53.26269531 22.04760742 C-36.12123239 22.45500079 -19.95026149 21.81282464 -6.53125 9.69140625 C-4.2836488 7.20872431 -2.64969196 4.46735667 -1.04296875 1.5390625 C-0.69878906 1.03117187 -0.35460937 0.52328125 0 0 Z " fill="#FBC706" transform="translate(209,1054)"/>
<path d="M0 0 C4.24361829 2.00105578 6.33362177 4.69621651 8.4375 8.8125 C9.64990681 15.68280527 9.7256327 21.14571167 6.19140625 27.33984375 C3.47686796 31.1223971 0.60976325 31.86005434 -3.8125 32.875 C-8.38130999 33.28877902 -12.01762146 32.22569764 -16 30 C-20.08133441 26.53973822 -22.65328526 23.58758686 -23.37109375 18.23046875 C-23.52753809 11.06163677 -23.01984599 7.24802081 -18 2 C-12.74954147 -1.45332172 -5.98544113 -0.77626882 0 0 Z " fill="#FBC706" transform="translate(517,886)"/>
<path d="M0 0 C1.65515625 0.00193359 1.65515625 0.00193359 3.34375 0.00390625 C8.08806902 0.65566295 10.62742473 2.44373372 13.75 6 C17.28100547 10.91818619 17.10361685 15.51031787 16.5 21.4375 C13.99908925 26.53194782 10.68950021 30.3192469 5.23828125 32.23046875 C0.19954991 33.50365508 -3.95151501 33.90304266 -8.73828125 31.66015625 C-12.23781372 29.23143416 -14.11294814 26.44524893 -15.5 22.4375 C-16.33785992 16.78009188 -16.31512888 12.12813768 -13.8125 6.9375 C-9.38942258 2.15579468 -6.69440312 -0.11730847 0 0 Z " fill="#FBC606" transform="translate(769.5,885.5625)"/>
</svg>
